<svg width="24" height="21" viewBox="0 0 24 21" fill="none" xmlns="http://www.w3.org/2000/svg">
<path d="M23 17.5245C23 18.055 22.7893 18.5637 22.4142 18.9387C22.0391 19.3138 21.5304 19.5245 21 19.5245H3C2.46957 19.5245 1.96086 19.3138 1.58579 18.9387C1.21071 18.5637 1 18.055 1 17.5245V6.52454C1 5.9941 1.21071 5.4854 1.58579 5.11032C1.96086 4.73525 2.46957 4.52454 3 4.52454H7L9 1.52454H15L17 4.52454H21C21.5304 4.52454 22.0391 4.73525 22.4142 5.11032C22.7893 5.4854 23 5.9941 23 6.52454V17.5245Z" stroke="#FDFDFD" stroke-width="2" stroke-linecap="round" stroke-linejoin="round"/>
<path d="M12 15.5245C14.2091 15.5245 16 13.7337 16 11.5245C16 9.3154 14.2091 7.52454 12 7.52454C9.79086 7.52454 8 9.3154 8 11.5245C8 13.7337 9.79086 15.5245 12 15.5245Z" stroke="#FDFDFD" stroke-width="2" stroke-linecap="round" stroke-linejoin="round"/>
</svg>
