<svg width="24" height="23" viewBox="0 0 24 23" fill="none" xmlns="http://www.w3.org/2000/svg">
<path d="M17 21.2809V19.1115C17 17.9608 16.5786 16.8572 15.8284 16.0435C15.0783 15.2298 14.0609 14.7727 13 14.7727H5C3.93913 14.7727 2.92172 15.2298 2.17157 16.0435C1.42143 16.8572 1 17.9608 1 19.1115V21.2809" stroke="#FDFDFD" stroke-width="2" stroke-linecap="round" stroke-linejoin="round"/>
<path d="M9 10.434C11.2091 10.434 13 8.49141 13 6.09515C13 3.6989 11.2091 1.75635 9 1.75635C6.79086 1.75635 5 3.6989 5 6.09515C5 8.49141 6.79086 10.434 9 10.434Z" stroke="#FDFDFD" stroke-width="2" stroke-linecap="round" stroke-linejoin="round"/>
<path d="M23 21.2809V19.1115C22.9993 18.1501 22.7044 17.2163 22.1614 16.4565C21.6184 15.6967 20.8581 15.154 20 14.9137" stroke="#FDFDFD" stroke-width="2" stroke-linecap="round" stroke-linejoin="round"/>
<path d="M16 1.89734C16.8604 2.1363 17.623 2.67908 18.1676 3.44011C18.7122 4.20114 19.0078 5.13713 19.0078 6.10052C19.0078 7.06392 18.7122 7.99991 18.1676 8.76094C17.623 9.52197 16.8604 10.0648 16 10.3037" stroke="#FDFDFD" stroke-width="2" stroke-linecap="round" stroke-linejoin="round"/>
</svg>
