<svg width="24" height="25" viewBox="0 0 24 25" fill="none" xmlns="http://www.w3.org/2000/svg">
<path d="M12 15.2809C13.6569 15.2809 15 13.9377 15 12.2809C15 10.624 13.6569 9.28088 12 9.28088C10.3431 9.28088 9 10.624 9 12.2809C9 13.9377 10.3431 15.2809 12 15.2809Z" stroke="#FDFDFD" stroke-width="2" stroke-linecap="round" stroke-linejoin="round"/>
<path d="M19.4 15.2809C19.2669 15.5825 19.2272 15.9171 19.286 16.2415C19.3448 16.5659 19.4995 16.8652 19.73 17.1009L19.79 17.1609C19.976 17.3466 20.1235 17.5672 20.2241 17.81C20.3248 18.0528 20.3766 18.3131 20.3766 18.5759C20.3766 18.8387 20.3248 19.099 20.2241 19.3418C20.1235 19.5846 19.976 19.8051 19.79 19.9909C19.6043 20.1768 19.3837 20.3244 19.1409 20.425C18.8981 20.5257 18.6378 20.5775 18.375 20.5775C18.1122 20.5775 17.8519 20.5257 17.6091 20.425C17.3663 20.3244 17.1457 20.1768 16.96 19.9909L16.9 19.9309C16.6643 19.7003 16.365 19.5457 16.0406 19.4869C15.7162 19.4281 15.3816 19.4678 15.08 19.6009C14.7842 19.7276 14.532 19.9381 14.3543 20.2064C14.1766 20.4747 14.0813 20.7891 14.08 21.1109V21.2809C14.08 21.8113 13.8693 22.32 13.4942 22.6951C13.1191 23.0702 12.6104 23.2809 12.08 23.2809C11.5496 23.2809 11.0409 23.0702 10.6658 22.6951C10.2907 22.32 10.08 21.8113 10.08 21.2809V21.1909C10.0723 20.8599 9.96512 20.5389 9.77251 20.2696C9.5799 20.0003 9.31074 19.7952 9 19.6809C8.69838 19.5478 8.36381 19.5081 8.03941 19.5669C7.71502 19.6257 7.41568 19.7803 7.18 20.0109L7.12 20.0709C6.93425 20.2568 6.71368 20.4044 6.47088 20.505C6.22808 20.6057 5.96783 20.6575 5.705 20.6575C5.44217 20.6575 5.18192 20.6057 4.93912 20.505C4.69632 20.4044 4.47575 20.2568 4.29 20.0709C4.10405 19.8851 3.95653 19.6646 3.85588 19.4218C3.75523 19.179 3.70343 18.9187 3.70343 18.6559C3.70343 18.3931 3.75523 18.1328 3.85588 17.89C3.95653 17.6472 4.10405 17.4266 4.29 17.2409L4.35 17.1809C4.58054 16.9452 4.73519 16.6459 4.794 16.3215C4.85282 15.9971 4.81312 15.6625 4.68 15.3609C4.55324 15.0651 4.34276 14.8129 4.07447 14.6352C3.80618 14.4575 3.49179 14.3622 3.17 14.3609H3C2.46957 14.3609 1.96086 14.1502 1.58579 13.7751C1.21071 13.4 1 12.8913 1 12.3609C1 11.8305 1.21071 11.3217 1.58579 10.9467C1.96086 10.5716 2.46957 10.3609 3 10.3609H3.09C3.42099 10.3531 3.742 10.246 4.0113 10.0534C4.28059 9.86079 4.48572 9.59162 4.6 9.28088C4.73312 8.97927 4.77282 8.64469 4.714 8.3203C4.65519 7.9959 4.50054 7.69656 4.27 7.46088L4.21 7.40088C4.02405 7.21514 3.87653 6.99456 3.77588 6.75176C3.67523 6.50897 3.62343 6.24871 3.62343 5.98588C3.62343 5.72305 3.67523 5.4628 3.77588 5.22C3.87653 4.97721 4.02405 4.75663 4.21 4.57088C4.39575 4.38493 4.61632 4.23741 4.85912 4.13676C5.10192 4.03612 5.36217 3.98431 5.625 3.98431C5.88783 3.98431 6.14808 4.03612 6.39088 4.13676C6.63368 4.23741 6.85425 4.38493 7.04 4.57088L7.1 4.63088C7.33568 4.86142 7.63502 5.01607 7.95941 5.07489C8.28381 5.13371 8.61838 5.094 8.92 4.96088H9C9.29577 4.83412 9.54802 4.62364 9.72569 4.35535C9.90337 4.08706 9.99872 3.77267 10 3.45088V3.28088C10 2.75045 10.2107 2.24174 10.5858 1.86667C10.9609 1.4916 11.4696 1.28088 12 1.28088C12.5304 1.28088 13.0391 1.4916 13.4142 1.86667C13.7893 2.24174 14 2.75045 14 3.28088V3.37088C14.0013 3.69267 14.0966 4.00706 14.2743 4.27535C14.452 4.54364 14.7042 4.75412 15 4.88088C15.3016 5.014 15.6362 5.05371 15.9606 4.99489C16.285 4.93607 16.5843 4.78142 16.82 4.55088L16.88 4.49088C17.0657 4.30493 17.2863 4.15741 17.5291 4.05676C17.7719 3.95612 18.0322 3.90431 18.295 3.90431C18.5578 3.90431 18.8181 3.95612 19.0609 4.05676C19.3037 4.15741 19.5243 4.30493 19.71 4.49088C19.896 4.67663 20.0435 4.89721 20.1441 5.14C20.2448 5.3828 20.2966 5.64305 20.2966 5.90588C20.2966 6.16871 20.2448 6.42897 20.1441 6.67176C20.0435 6.91456 19.896 7.13514 19.71 7.32088L19.65 7.38088C19.4195 7.61656 19.2648 7.9159 19.206 8.24029C19.1472 8.56469 19.1869 8.89927 19.32 9.20088V9.28088C19.4468 9.57665 19.6572 9.8289 19.9255 10.0066C20.1938 10.1843 20.5082 10.2796 20.83 10.2809H21C21.5304 10.2809 22.0391 10.4916 22.4142 10.8667C22.7893 11.2417 23 11.7505 23 12.2809C23 12.8113 22.7893 13.32 22.4142 13.6951C22.0391 14.0702 21.5304 14.2809 21 14.2809H20.91C20.5882 14.2822 20.2738 14.3775 20.0055 14.5552C19.7372 14.7329 19.5268 14.9851 19.4 15.2809V15.2809Z" stroke="#FDFDFD" stroke-width="2" stroke-linecap="round" stroke-linejoin="round"/>
</svg>
