<svg width="23" height="21" viewBox="0 0 23 21" fill="none" xmlns="http://www.w3.org/2000/svg">
<path d="M20.2913 3.13636C19.7805 2.62537 19.1741 2.22001 18.5066 1.94345C17.8392 1.66688 17.1238 1.52454 16.4013 1.52454C15.6788 1.52454 14.9634 1.66688 14.2959 1.94345C13.6285 2.22001 13.022 2.62537 12.5113 3.13636L11.4513 4.19636L10.3913 3.13636C9.3596 2.10467 7.96032 1.52507 6.50129 1.52507C5.04226 1.52507 3.64298 2.10467 2.61129 3.13636C1.5796 4.16805 1 5.56733 1 7.02636C1 8.48539 1.5796 9.88467 2.61129 10.9164L3.67129 11.9764L11.4513 19.7564L19.2313 11.9764L20.2913 10.9164C20.8023 10.4056 21.2076 9.79918 21.4842 9.13172C21.7608 8.46426 21.9031 7.74885 21.9031 7.02636C21.9031 6.30387 21.7608 5.58847 21.4842 4.92101C21.2076 4.25355 20.8023 3.64712 20.2913 3.13636V3.13636Z" stroke="#FDFDFD" stroke-width="2" stroke-linecap="round" stroke-linejoin="round"/>
</svg>
