<svg width="25" height="19" viewBox="0 0 25 19" fill="none" xmlns="http://www.w3.org/2000/svg">
<path d="M17.3333 14.5814V18H8.08333V9.72093V8.72093H7.08333H3.92007L1.41439 4.23694L8.46558 1.21031L8.84478 1.65711C10.7735 3.92974 14.2497 4.02072 16.2947 1.85209L16.9054 1.20446L23.7013 4.26738L21.8348 8.72093H18.3333H17.3333V9.72093V14.5814Z" stroke="#FDFDFD" stroke-width="2"/>
<path d="M12.3003 5.80225H13.5323C13.8848 5.80225 14.1266 6.15708 13.9977 6.48509L13.7419 7.13626C13.6667 7.32759 13.4821 7.45341 13.2765 7.45341H12.5562C12.3506 7.45341 12.166 7.32759 12.0908 7.13626L11.835 6.48509C11.7061 6.15708 11.9479 5.80225 12.3003 5.80225Z" stroke="#FDFDFD"/>
<path d="M12.6665 7.56982H13.1665C13.4426 7.56982 13.6665 7.79368 13.6665 8.06982V14.1353C13.6665 14.2458 13.6299 14.3532 13.5624 14.4407L13.3124 14.7648C13.1122 15.0242 12.7208 15.0242 12.5206 14.7648L12.2706 14.4407C12.2031 14.3532 12.1665 14.2458 12.1665 14.1353V8.06982C12.1665 7.79368 12.3904 7.56982 12.6665 7.56982Z" stroke="#FDFDFD"/>
</svg>
