<svg width="58" height="21" viewBox="0 0 58 21" fill="none" xmlns="http://www.w3.org/2000/svg">
<rect width="58" height="20.2202" rx="10.1101" fill="#FEF4EA"/>
<path d="M29.623 13.0879C29.0111 13.0879 28.4674 12.9772 27.9922 12.7559C27.5169 12.5345 27.1426 12.209 26.8691 11.7793C26.5957 11.3496 26.459 10.8255 26.459 10.207C26.459 9.75781 26.5371 9.34766 26.6934 8.97656C26.8561 8.60547 27.084 8.28646 27.377 8.01953C27.6764 7.7526 28.0312 7.54753 28.4414 7.4043C28.8516 7.25456 29.3073 7.17969 29.8086 7.17969C30.0951 7.17969 30.388 7.20898 30.6875 7.26758C30.987 7.32617 31.2441 7.4043 31.459 7.50195L31.5273 8.94727L30.9805 8.98633L30.6582 7.99023C30.5345 7.91862 30.388 7.86654 30.2188 7.83398C30.056 7.79492 29.89 7.77539 29.7207 7.77539C29.304 7.77539 28.9557 7.86979 28.6758 8.05859C28.4023 8.2474 28.194 8.50781 28.0508 8.83984C27.9141 9.17188 27.8457 9.55599 27.8457 9.99219C27.8457 10.513 27.9336 10.959 28.1094 11.3301C28.2852 11.7012 28.5195 11.9844 28.8125 12.1797C29.112 12.375 29.444 12.4727 29.8086 12.4727C29.9844 12.4727 30.1634 12.4466 30.3457 12.3945C30.528 12.3424 30.681 12.2676 30.8047 12.1699L31.1758 11.2812L31.7617 11.3398L31.4785 12.6094C31.2767 12.7331 31.0065 12.8438 30.668 12.9414C30.3359 13.0391 29.9876 13.0879 29.623 13.0879ZM32.1816 13L32.1523 12.5703L32.7871 12.4238C32.8001 12.3652 32.8099 12.2513 32.8164 12.082C32.8229 11.9128 32.8294 11.7077 32.8359 11.4668C32.8424 11.2194 32.8457 10.9622 32.8457 10.6953V9.46484C32.8457 9.23698 32.8424 9.00586 32.8359 8.77148C32.8359 8.5306 32.8327 8.30273 32.8262 8.08789C32.8262 7.87305 32.8229 7.68424 32.8164 7.52148C32.8099 7.35221 32.8034 7.22201 32.7969 7.13086L32.0742 7.0332L32.0547 6.65234L33.7637 6.20312L34.0078 6.35938C34.0013 6.63281 33.9915 6.90299 33.9785 7.16992C33.972 7.43034 33.9655 7.72331 33.959 8.04883C33.959 8.37435 33.959 8.77148 33.959 9.24023L33.9492 10.7246C33.9492 11.1543 33.9525 11.5319 33.959 11.8574C33.972 12.1764 33.985 12.3652 33.998 12.4238L34.6328 12.5703L34.6133 13H32.1816ZM36.6348 13.0781C36.3418 13.0781 36.0879 13.0163 35.873 12.8926C35.6647 12.7689 35.5052 12.6191 35.3945 12.4434C35.2839 12.2676 35.2285 12.0983 35.2285 11.9355C35.2285 11.7077 35.3001 11.5189 35.4434 11.3691C35.5866 11.2129 35.8145 11.0859 36.127 10.9883L37.6504 10.5195V10.1191C37.6504 9.97591 37.6048 9.84245 37.5137 9.71875C37.4225 9.59505 37.3021 9.49414 37.1523 9.41602C37.0026 9.33789 36.8398 9.29883 36.6641 9.29883C36.5404 9.29883 36.4525 9.32812 36.4004 9.38672C36.3548 9.4388 36.3255 9.54622 36.3125 9.70898L36.2734 10.2363C35.9805 10.3014 35.7363 10.2949 35.541 10.2168C35.3522 10.1322 35.2578 9.99544 35.2578 9.80664C35.2578 9.68945 35.3164 9.56901 35.4336 9.44531C35.5508 9.32161 35.6973 9.20443 35.873 9.09375C36.0553 8.98307 36.2441 8.88867 36.4395 8.81055C36.6348 8.73242 36.8138 8.68359 36.9766 8.66406C37.5234 8.66406 37.9564 8.79427 38.2754 9.05469C38.6009 9.3151 38.7669 9.66341 38.7734 10.0996L38.7441 11.5449C38.7441 11.7077 38.7474 11.8444 38.7539 11.9551C38.7669 12.0592 38.7865 12.1439 38.8125 12.209L39.4473 12.3262V12.6973L38.8711 12.9414C38.7604 12.987 38.6595 13.0195 38.5684 13.0391C38.4772 13.0651 38.3926 13.0781 38.3145 13.0781C38.0801 13.0781 37.9173 12.9544 37.8262 12.707L37.6797 12.2773L37.8652 12.3164C37.6634 12.5573 37.4583 12.7461 37.25 12.8828C37.0417 13.013 36.8366 13.0781 36.6348 13.0781ZM37.0547 12.2969C37.1654 12.2969 37.2695 12.2741 37.3672 12.2285C37.4714 12.1829 37.5658 12.1113 37.6504 12.0137V11.0371L36.8398 11.2129C36.6836 11.2454 36.5697 11.3008 36.498 11.3789C36.4329 11.457 36.4004 11.5612 36.4004 11.6914C36.4004 11.8477 36.4622 11.9876 36.5859 12.1113C36.7161 12.235 36.8724 12.2969 37.0547 12.2969ZM39.7305 13L39.7012 12.5703L40.3555 12.4238C40.362 12.3978 40.3685 12.3424 40.375 12.2578C40.3815 12.1732 40.388 12.0625 40.3945 11.9258C40.401 11.7826 40.4043 11.6165 40.4043 11.4277L40.4141 10.6855C40.4141 10.4837 40.4076 10.2982 40.3945 10.1289C40.3815 9.95312 40.3587 9.79036 40.3262 9.64062L39.6719 9.50391V9.10352L41.3418 8.68359L41.5664 8.84961C41.5469 9.05143 41.5306 9.25651 41.5176 9.46484C41.5111 9.66667 41.5078 9.90104 41.5078 10.168V11.3984C41.5078 11.6393 41.5111 11.8574 41.5176 12.0527C41.5306 12.248 41.5469 12.3717 41.5664 12.4238L42.2207 12.5703L42.1914 13H39.7305ZM40.9707 7.77539C40.7428 7.77539 40.5605 7.70703 40.4238 7.57031C40.2871 7.42708 40.2188 7.25781 40.2188 7.0625C40.2188 6.8737 40.2871 6.70768 40.4238 6.56445C40.5605 6.42122 40.7428 6.34961 40.9707 6.34961C41.1986 6.34961 41.3776 6.42122 41.5078 6.56445C41.638 6.70768 41.7031 6.8737 41.7031 7.0625C41.7031 7.25781 41.638 7.42708 41.5078 7.57031C41.3776 7.70703 41.1986 7.77539 40.9707 7.77539ZM42.5723 13L42.543 12.5801L43.1484 12.4238C43.1549 12.3978 43.1615 12.3424 43.168 12.2578C43.1745 12.1732 43.181 12.0625 43.1875 11.9258C43.194 11.7826 43.1973 11.6165 43.1973 11.4277L43.207 10.6855C43.207 10.4837 43.2005 10.2982 43.1875 10.1289C43.1745 9.95312 43.1517 9.79036 43.1191 9.64062L42.4941 9.50391V9.10352L44.0664 8.68359L44.2812 8.83984L44.2422 9.62109L44.2715 9.63086C44.4603 9.26628 44.6523 9.01888 44.8477 8.88867C45.043 8.75846 45.2383 8.69336 45.4336 8.69336C45.6029 8.69336 45.7461 8.73893 45.8633 8.83008C45.987 8.92122 46.0488 9.0612 46.0488 9.25C46.0488 9.4388 45.9837 9.58529 45.8535 9.68945C45.7233 9.79362 45.5671 9.8457 45.3848 9.8457C45.2415 9.8457 45.1113 9.81966 44.9941 9.76758C44.877 9.71549 44.7533 9.6276 44.623 9.50391L44.8574 9.5332C44.7533 9.61133 44.6523 9.71224 44.5547 9.83594C44.457 9.95312 44.3691 10.0931 44.291 10.2559L44.3008 11.0664C44.3073 11.2812 44.3138 11.4831 44.3203 11.6719C44.3268 11.8542 44.3333 12.0137 44.3398 12.1504C44.3464 12.2806 44.3529 12.3717 44.3594 12.4238L45.209 12.5605L45.1797 13H42.5723Z" fill="#5A5250"/>
<circle cx="11.7064" cy="10.1101" r="6.38532" fill="#CF697B"/>
</svg>
