<svg width="58" height="21" viewBox="0 0 58 21" fill="none" xmlns="http://www.w3.org/2000/svg">
<rect width="58" height="20.2202" rx="10.1101" fill="#5A5250"/>
<path d="M6.49316 12.8127C6.21322 12.8127 5.91374 12.7769 5.59473 12.7053C5.27572 12.6271 5.00553 12.5262 4.78418 12.4025L4.73535 11.0158L5.29199 10.9767L5.60449 11.9338C5.75423 12.0314 5.92025 12.1063 6.10254 12.1584C6.28483 12.204 6.46061 12.2267 6.62988 12.2267C6.93587 12.2267 7.17025 12.1616 7.33301 12.0314C7.50228 11.8947 7.58691 11.7124 7.58691 11.4846C7.58691 11.2567 7.51855 11.0711 7.38184 10.9279C7.24512 10.7847 7.06934 10.661 6.85449 10.5568C6.63965 10.4527 6.41178 10.3517 6.1709 10.2541C5.93001 10.1564 5.70215 10.0392 5.4873 9.90253C5.27246 9.76581 5.09668 9.59328 4.95996 9.38495C4.82324 9.17662 4.75488 8.91294 4.75488 8.59393C4.75488 8.25539 4.84928 7.95917 5.03809 7.70526C5.2334 7.44484 5.50358 7.24302 5.84863 7.09979C6.19368 6.95656 6.59082 6.88495 7.04004 6.88495C7.19629 6.88495 7.35905 6.89471 7.52832 6.91425C7.69759 6.93378 7.86035 6.96307 8.0166 7.00214C8.17285 7.0412 8.30957 7.08677 8.42676 7.13885L8.52441 8.49628L7.96777 8.53534L7.6748 7.62714C7.45996 7.50995 7.21582 7.45135 6.94238 7.45135C6.64941 7.45135 6.41178 7.52297 6.22949 7.6662C6.05371 7.80943 5.96582 8.00474 5.96582 8.25214C5.96582 8.47349 6.03418 8.65904 6.1709 8.80878C6.30762 8.95201 6.4834 9.07896 6.69824 9.18964C6.9196 9.2938 7.15072 9.39797 7.3916 9.50214C7.639 9.59979 7.87012 9.71698 8.08496 9.8537C8.30632 9.98391 8.48535 10.1499 8.62207 10.3517C8.75879 10.5536 8.82715 10.8075 8.82715 11.1135C8.82715 11.439 8.72949 11.732 8.53418 11.9924C8.33887 12.2463 8.06543 12.4481 7.71387 12.5978C7.3623 12.7411 6.9554 12.8127 6.49316 12.8127ZM11.6982 12.8029C11.2555 12.8029 10.8649 12.7118 10.5264 12.5295C10.1943 12.3407 9.93392 12.0835 9.74512 11.758C9.55632 11.426 9.46191 11.0484 9.46191 10.6252C9.46191 10.1629 9.56608 9.76581 9.77441 9.43378C9.98926 9.09524 10.2692 8.83807 10.6143 8.66229C10.9658 8.48 11.3402 8.38885 11.7373 8.38885C12.1605 8.38885 12.5316 8.48 12.8506 8.66229C13.1696 8.84458 13.417 9.09849 13.5928 9.42401C13.7751 9.74953 13.8662 10.1239 13.8662 10.5471C13.8662 10.9702 13.7686 11.3543 13.5732 11.6994C13.3844 12.0379 13.124 12.3081 12.792 12.5099C12.4665 12.7053 12.1019 12.8029 11.6982 12.8029ZM11.7959 12.2365C11.9782 12.2365 12.1344 12.1812 12.2646 12.0705C12.3949 11.9533 12.4958 11.7873 12.5674 11.5724C12.639 11.3576 12.6748 11.107 12.6748 10.8205C12.6748 10.2606 12.5771 9.80487 12.3818 9.45331C12.1865 9.10175 11.9261 8.92596 11.6006 8.92596C11.3206 8.92596 11.096 9.05943 10.9268 9.32635C10.7575 9.59328 10.6729 9.9481 10.6729 10.3908C10.6729 10.7424 10.7217 11.0581 10.8193 11.3381C10.917 11.618 11.0505 11.8394 11.2197 12.0021C11.389 12.1584 11.5811 12.2365 11.7959 12.2365ZM14.4521 12.7248L14.4229 12.3049L15.0283 12.1486C15.0348 12.1226 15.0413 12.0672 15.0479 11.9826C15.0544 11.898 15.0609 11.7873 15.0674 11.6506C15.0739 11.5073 15.0771 11.3413 15.0771 11.1525L15.0869 10.4103C15.0869 10.2801 15.0837 10.1564 15.0771 10.0392C15.0706 9.91555 15.0609 9.79836 15.0479 9.68768C15.0348 9.5705 15.0186 9.46307 14.999 9.36542L14.374 9.2287V8.82831L15.9658 8.40839L16.2002 8.5744L16.1416 9.12128L16.1709 9.13104C16.3792 8.87063 16.5941 8.68182 16.8154 8.56464C17.0368 8.44745 17.2679 8.38885 17.5088 8.38885C17.7562 8.38885 17.9873 8.45396 18.2021 8.58417C18.4235 8.70787 18.6025 8.89992 18.7393 9.16034C18.876 9.41425 18.9443 9.73977 18.9443 10.1369L18.9639 11.1525C18.9639 11.3739 18.9671 11.5822 18.9736 11.7775C18.9801 11.9663 18.9932 12.09 19.0127 12.1486L19.5693 12.3049L19.54 12.7248H17.3428L17.3135 12.3049L17.8311 12.1486C17.8441 12.0965 17.8538 12.0217 17.8604 11.924C17.8669 11.8264 17.8701 11.7124 17.8701 11.5822C17.8766 11.452 17.8799 11.3185 17.8799 11.1818L17.8701 10.215C17.8701 9.96763 17.8311 9.76906 17.7529 9.61932C17.6813 9.46958 17.5837 9.36216 17.46 9.29706C17.3363 9.23195 17.1995 9.1994 17.0498 9.1994C16.887 9.1994 16.7275 9.24172 16.5713 9.32635C16.415 9.40448 16.2816 9.52167 16.1709 9.67792V11.1232C16.1709 11.3641 16.1742 11.5822 16.1807 11.7775C16.1937 11.9728 16.21 12.0965 16.2295 12.1486L16.7861 12.3049L16.7568 12.7248H14.4521ZM20.1064 12.7248L20.0771 12.3049L20.6045 12.1486C20.6175 12.0965 20.6273 12.0217 20.6338 11.924C20.6403 11.8264 20.6436 11.7124 20.6436 11.5822C20.6501 11.452 20.6533 11.3185 20.6533 11.1818L20.6436 10.2736C20.6436 10.0132 20.6012 9.80487 20.5166 9.64862C20.4385 9.49237 20.3343 9.37844 20.2041 9.30682C20.0739 9.23521 19.9339 9.1994 19.7842 9.1994C19.6019 9.1994 19.4294 9.24172 19.2666 9.32635C19.1104 9.40448 18.9736 9.52818 18.8564 9.69745L18.6123 9.30682C18.8402 9.00734 19.0843 8.77948 19.3447 8.62323C19.6051 8.46698 19.8851 8.38885 20.1846 8.38885C20.4906 8.38885 20.7575 8.46047 20.9854 8.6037C21.2197 8.74693 21.3988 8.94875 21.5225 9.20917C21.6527 9.46307 21.7178 9.76581 21.7178 10.1174L21.7275 11.1525C21.7275 11.3739 21.7308 11.5822 21.7373 11.7775C21.7503 11.9663 21.7666 12.09 21.7861 12.1486L22.3916 12.3049L22.3623 12.7248H20.1064ZM23.2314 12.4514C23.2445 12.23 23.251 12.0184 23.251 11.8166C23.2575 11.6083 23.2607 11.3999 23.2607 11.1916C23.2607 10.9767 23.2607 10.7619 23.2607 10.5471V9.18964C23.2607 8.9162 23.2575 8.65253 23.251 8.39862C23.251 8.14471 23.2477 7.91359 23.2412 7.70526C23.2412 7.49693 23.238 7.31789 23.2314 7.16815C23.2314 7.01841 23.2282 6.91099 23.2217 6.84589L22.499 6.758L22.4795 6.37714L24.1689 5.92792L24.4131 6.08417C24.4001 6.35109 24.387 6.61802 24.374 6.88495C24.3675 7.15188 24.361 7.46112 24.3545 7.81268C24.348 8.15774 24.3382 8.58742 24.3252 9.10175L24.3545 9.11151C24.4977 8.9162 24.6898 8.74693 24.9307 8.6037C25.1715 8.46047 25.4287 8.38885 25.7021 8.38885C26.0277 8.38885 26.3271 8.47024 26.6006 8.633C26.874 8.78925 27.0954 9.01711 27.2646 9.31659C27.4339 9.60956 27.5186 9.96438 27.5186 10.381C27.5186 10.8368 27.4111 11.2469 27.1963 11.6115C26.9814 11.9761 26.6787 12.2658 26.2881 12.4807C25.904 12.6955 25.458 12.8029 24.9502 12.8029C24.6507 12.8029 24.3545 12.7736 24.0615 12.715C23.7751 12.6499 23.4984 12.562 23.2314 12.4514ZM25.1846 12.1584C25.5101 12.1584 25.7803 12.0347 25.9951 11.7873C26.2165 11.5334 26.3304 11.1493 26.3369 10.6349C26.3434 10.1467 26.2327 9.79185 26.0049 9.5705C25.777 9.34263 25.5101 9.2287 25.2041 9.2287C25.0413 9.2287 24.8851 9.26451 24.7354 9.33612C24.5856 9.40122 24.4554 9.49888 24.3447 9.62909V11.8849C24.4554 11.9696 24.5824 12.0379 24.7256 12.09C24.8688 12.1356 25.0218 12.1584 25.1846 12.1584ZM28.0947 12.7248L28.0654 12.3049L28.6709 12.1486C28.6774 12.1226 28.6839 12.0672 28.6904 11.9826C28.6969 11.898 28.7035 11.7873 28.71 11.6506C28.7165 11.5073 28.7197 11.3413 28.7197 11.1525L28.7295 10.4103C28.7295 10.2085 28.723 10.023 28.71 9.8537C28.6969 9.67792 28.6742 9.51516 28.6416 9.36542L28.0166 9.2287V8.82831L29.5889 8.40839L29.8037 8.56464L29.7646 9.34589L29.7939 9.35565C29.9827 8.99107 30.1748 8.74367 30.3701 8.61346C30.5654 8.48326 30.7607 8.41815 30.9561 8.41815C31.1253 8.41815 31.2686 8.46372 31.3857 8.55487C31.5094 8.64602 31.5713 8.78599 31.5713 8.97479C31.5713 9.16359 31.5062 9.31008 31.376 9.41425C31.2458 9.51841 31.0895 9.5705 30.9072 9.5705C30.764 9.5705 30.6338 9.54445 30.5166 9.49237C30.3994 9.44029 30.2757 9.3524 30.1455 9.2287L30.3799 9.258C30.2757 9.33612 30.1748 9.43703 30.0771 9.56073C29.9795 9.67792 29.8916 9.81789 29.8135 9.98065L29.8232 10.7912C29.8298 11.006 29.8363 11.2079 29.8428 11.3967C29.8493 11.579 29.8558 11.7385 29.8623 11.8752C29.8688 12.0054 29.8753 12.0965 29.8818 12.1486L30.7314 12.2853L30.7021 12.7248H28.0947ZM33.9443 12.8029C33.5407 12.8029 33.1761 12.7118 32.8506 12.5295C32.5316 12.3472 32.2809 12.0965 32.0986 11.7775C31.9163 11.452 31.8252 11.0809 31.8252 10.6642C31.8252 10.2085 31.9261 9.81138 32.1279 9.47284C32.3298 9.12779 32.5934 8.86086 32.9189 8.67206C33.2445 8.47675 33.5928 8.38234 33.9639 8.38885C34.5303 8.39537 34.96 8.5744 35.2529 8.92596C35.5524 9.27753 35.7021 9.73651 35.7021 10.3029V10.5178H32.8115V10.0295H34.8525L34.7158 10.2346V9.94159C34.7158 9.61607 34.641 9.35891 34.4912 9.1701C34.348 8.9813 34.1462 8.8869 33.8857 8.8869C33.7165 8.8869 33.5602 8.93573 33.417 9.03339C33.2738 9.13104 33.1598 9.27753 33.0752 9.47284C32.9906 9.66815 32.9482 9.91229 32.9482 10.2053V10.381C32.9482 10.8628 33.0719 11.2469 33.3193 11.5334C33.5732 11.8198 33.9085 11.9631 34.3252 11.9631C34.5465 11.9631 34.7451 11.924 34.9209 11.8459C35.1032 11.7613 35.2822 11.618 35.458 11.4162L35.7412 11.6701C35.5589 12.0477 35.3083 12.3309 34.9893 12.5197C34.6768 12.7085 34.3285 12.8029 33.9443 12.8029Z" fill="white"/>
<circle cx="47.3579" cy="10.1101" r="6.38532" fill="#FEF4EA"/>
</svg>
