<svg width="18" height="9" viewBox="0 0 18 9" fill="none" xmlns="http://www.w3.org/2000/svg">
<path d="M1.32954 0.623963C1.12186 0.441963 0.805963 0.462781 0.623963 0.67046C0.441963 0.87814 0.462781 1.19404 0.67046 1.37604L1.32954 0.623963ZM17.329 1.37654C17.5369 1.19486 17.5582 0.878992 17.3765 0.671035C17.1949 0.463078 16.879 0.441778 16.671 0.623461L17.329 1.37654ZM8.98768 8L8.65814 8.37604C8.84653 8.54113 9.12801 8.54134 9.31665 8.37654L8.98768 8ZM0.67046 1.37604L8.65814 8.37604L9.31722 7.62396L1.32954 0.623963L0.67046 1.37604ZM9.31665 8.37654L17.329 1.37654L16.671 0.623461L8.65872 7.62346L9.31665 8.37654Z" fill="#5A5250"/>
</svg>
