<svg width="89" height="30" viewBox="0 0 89 30" fill="none" xmlns="http://www.w3.org/2000/svg">
<path d="M10.384 16.148L7.909 9.735C7.83567 9.54433 7.75867 9.32433 7.678 9.075C7.59733 8.81833 7.52033 8.547 7.447 8.261C7.293 8.855 7.13533 9.35 6.974 9.746L4.499 16.148H10.384ZM14.828 22H13.178C12.9873 22 12.8333 21.9523 12.716 21.857C12.5987 21.7617 12.5107 21.6407 12.452 21.494L10.978 17.688H3.905L2.431 21.494C2.387 21.626 2.30267 21.7433 2.178 21.846C2.05333 21.9487 1.89933 22 1.716 22H0.066L6.369 6.237H8.525L14.828 22ZM26.5896 16.555C26.5896 17.435 26.4796 18.2233 26.2596 18.92C26.0469 19.6167 25.7279 20.207 25.3026 20.691C24.8846 21.1677 24.3676 21.5343 23.7516 21.791C23.1356 22.0477 22.4279 22.176 21.6286 22.176C20.9026 22.176 20.1619 22.0733 19.4066 21.868C19.4212 21.6553 19.4396 21.4463 19.4616 21.241C19.4836 21.0283 19.5019 20.8193 19.5166 20.614C19.5312 20.4893 19.5752 20.3903 19.6486 20.317C19.7292 20.2363 19.8502 20.196 20.0116 20.196C20.1436 20.196 20.3159 20.229 20.5286 20.295C20.7486 20.361 21.0419 20.394 21.4086 20.394C21.8926 20.394 22.3252 20.3207 22.7066 20.174C23.0879 20.0273 23.4069 19.8 23.6636 19.492C23.9202 19.184 24.1146 18.7917 24.2466 18.315C24.3859 17.831 24.4556 17.259 24.4556 16.599V6.237H26.5896V16.555ZM35.6056 16.984C34.7036 17.0133 33.9336 17.0867 33.2956 17.204C32.665 17.314 32.148 17.4607 31.7446 17.644C31.3486 17.8273 31.059 18.0437 30.8756 18.293C30.6996 18.5423 30.6116 18.821 30.6116 19.129C30.6116 19.4223 30.6593 19.6753 30.7546 19.888C30.85 20.1007 30.9783 20.2767 31.1396 20.416C31.3083 20.548 31.5026 20.647 31.7226 20.713C31.95 20.7717 32.192 20.801 32.4486 20.801C32.7933 20.801 33.1086 20.768 33.3946 20.702C33.6806 20.6287 33.9483 20.526 34.1976 20.394C34.4543 20.262 34.6963 20.1043 34.9236 19.921C35.1583 19.7377 35.3856 19.5287 35.6056 19.294V16.984ZM29.2806 12.43C29.8966 11.836 30.5603 11.3923 31.2716 11.099C31.983 10.8057 32.7713 10.659 33.6366 10.659C34.26 10.659 34.8136 10.7617 35.2976 10.967C35.7816 11.1723 36.1886 11.4583 36.5186 11.825C36.8486 12.1917 37.098 12.6353 37.2666 13.156C37.4353 13.6767 37.5196 14.2487 37.5196 14.872V22H36.6506C36.46 22 36.3133 21.9707 36.2106 21.912C36.108 21.846 36.0273 21.7213 35.9686 21.538L35.7486 20.482C35.4553 20.7533 35.1693 20.9953 34.8906 21.208C34.612 21.4133 34.3186 21.5893 34.0106 21.736C33.7026 21.8753 33.3726 21.9817 33.0206 22.055C32.676 22.1357 32.291 22.176 31.8656 22.176C31.433 22.176 31.026 22.1173 30.6446 22C30.2633 21.8753 29.9296 21.692 29.6436 21.45C29.365 21.208 29.1413 20.9037 28.9726 20.537C28.8113 20.163 28.7306 19.723 28.7306 19.217C28.7306 18.777 28.8516 18.3553 29.0936 17.952C29.3356 17.5413 29.728 17.1783 30.2706 16.863C30.8133 16.5477 31.521 16.291 32.3936 16.093C33.2663 15.8877 34.337 15.7703 35.6056 15.741V14.872C35.6056 14.0067 35.4186 13.354 35.0446 12.914C34.6706 12.4667 34.1243 12.243 33.4056 12.243C32.9216 12.243 32.5146 12.3053 32.1846 12.43C31.862 12.5473 31.5796 12.683 31.3376 12.837C31.103 12.9837 30.8976 13.1193 30.7216 13.244C30.553 13.3613 30.3843 13.42 30.2156 13.42C30.0836 13.42 29.97 13.387 29.8746 13.321C29.7793 13.2477 29.6986 13.1597 29.6326 13.057L29.2806 12.43ZM40.5022 22V10.857H41.6792C41.9578 10.857 42.1302 10.9927 42.1962 11.264L42.3392 12.408C42.7498 11.902 43.2118 11.4877 43.7252 11.165C44.2385 10.8423 44.8325 10.681 45.5072 10.681C46.2552 10.681 46.8602 10.89 47.3222 11.308C47.7915 11.726 48.1288 12.2907 48.3342 13.002C48.4955 12.5987 48.7008 12.2503 48.9502 11.957C49.2068 11.6637 49.4928 11.4217 49.8082 11.231C50.1235 11.0403 50.4572 10.901 50.8092 10.813C51.1685 10.725 51.5315 10.681 51.8982 10.681C52.4848 10.681 53.0055 10.7763 53.4602 10.967C53.9222 11.1503 54.3108 11.4217 54.6262 11.781C54.9488 12.1403 55.1945 12.584 55.3632 13.112C55.5318 13.6327 55.6162 14.2303 55.6162 14.905V22H53.6472V14.905C53.6472 14.0323 53.4565 13.3723 53.0752 12.925C52.6938 12.4703 52.1438 12.243 51.4252 12.243C51.1025 12.243 50.7945 12.3017 50.5012 12.419C50.2152 12.529 49.9622 12.694 49.7422 12.914C49.5222 13.134 49.3462 13.4127 49.2142 13.75C49.0895 14.08 49.0272 14.465 49.0272 14.905V22H47.0582V14.905C47.0582 14.0103 46.8785 13.343 46.5192 12.903C46.1598 12.463 45.6355 12.243 44.9462 12.243C44.4622 12.243 44.0148 12.375 43.6042 12.639C43.1935 12.8957 42.8158 13.2477 42.4712 13.695V22H40.5022ZM77.5467 10.857V22H75.5887V10.857H77.5467ZM77.9647 7.359C77.9647 7.54967 77.9244 7.72933 77.8437 7.898C77.7704 8.05933 77.6677 8.206 77.5357 8.338C77.4111 8.46267 77.2607 8.56167 77.0847 8.635C76.9161 8.70833 76.7364 8.745 76.5457 8.745C76.3551 8.745 76.1754 8.70833 76.0067 8.635C75.8454 8.56167 75.7024 8.46267 75.5777 8.338C75.4531 8.206 75.3541 8.05933 75.2807 7.898C75.2074 7.72933 75.1707 7.54967 75.1707 7.359C75.1707 7.16833 75.2074 6.98867 75.2807 6.82C75.3541 6.644 75.4531 6.49367 75.5777 6.369C75.7024 6.237 75.8454 6.13433 76.0067 6.061C76.1754 5.98767 76.3551 5.951 76.5457 5.951C76.7364 5.951 76.9161 5.98767 77.0847 6.061C77.2607 6.13433 77.4111 6.237 77.5357 6.369C77.6677 6.49367 77.7704 6.644 77.8437 6.82C77.9244 6.98867 77.9647 7.16833 77.9647 7.359ZM87.2539 12.694C87.1659 12.8553 87.0302 12.936 86.8469 12.936C86.7369 12.936 86.6122 12.8957 86.4729 12.815C86.3336 12.7343 86.1612 12.6463 85.9559 12.551C85.7579 12.4483 85.5196 12.3567 85.2409 12.276C84.9622 12.188 84.6322 12.144 84.2509 12.144C83.9209 12.144 83.6239 12.188 83.3599 12.276C83.0959 12.3567 82.8686 12.4703 82.6779 12.617C82.4946 12.7637 82.3516 12.936 82.2489 13.134C82.1536 13.3247 82.1059 13.5337 82.1059 13.761C82.1059 14.047 82.1866 14.2853 82.3479 14.476C82.5166 14.6667 82.7366 14.8317 83.0079 14.971C83.2792 15.1103 83.5872 15.235 83.9319 15.345C84.2766 15.4477 84.6286 15.5613 84.9879 15.686C85.3546 15.8033 85.7102 15.9353 86.0549 16.082C86.3996 16.2287 86.7076 16.412 86.9789 16.632C87.2502 16.852 87.4666 17.1233 87.6279 17.446C87.7966 17.7613 87.8809 18.1427 87.8809 18.59C87.8809 19.1033 87.7892 19.58 87.6059 20.02C87.4226 20.4527 87.1512 20.8303 86.7919 21.153C86.4326 21.4683 85.9926 21.7177 85.4719 21.901C84.9512 22.0843 84.3499 22.176 83.6679 22.176C82.8906 22.176 82.1866 22.0513 81.5559 21.802C80.9252 21.5453 80.3899 21.219 79.9499 20.823L80.4119 20.075C80.4706 19.9797 80.5402 19.9063 80.6209 19.855C80.7016 19.8037 80.8042 19.778 80.9289 19.778C81.0609 19.778 81.2002 19.8293 81.3469 19.932C81.4936 20.0347 81.6696 20.1483 81.8749 20.273C82.0876 20.3977 82.3442 20.5113 82.6449 20.614C82.9456 20.7167 83.3196 20.768 83.7669 20.768C84.1482 20.768 84.4819 20.7203 84.7679 20.625C85.0539 20.5223 85.2922 20.3867 85.4829 20.218C85.6736 20.0493 85.8129 19.855 85.9009 19.635C85.9962 19.415 86.0439 19.1803 86.0439 18.931C86.0439 18.623 85.9596 18.37 85.7909 18.172C85.6296 17.9667 85.4132 17.7943 85.1419 17.655C84.8706 17.5083 84.5589 17.3837 84.2069 17.281C83.8622 17.171 83.5066 17.0573 83.1399 16.94C82.7806 16.8227 82.4249 16.6907 82.0729 16.544C81.7282 16.39 81.4202 16.1993 81.1489 15.972C80.8776 15.7447 80.6576 15.466 80.4889 15.136C80.3276 14.7987 80.2469 14.3917 80.2469 13.915C80.2469 13.4897 80.3349 13.0827 80.5109 12.694C80.6869 12.298 80.9436 11.9533 81.2809 11.66C81.6182 11.3593 82.0326 11.121 82.5239 10.945C83.0152 10.769 83.5762 10.681 84.2069 10.681C84.9402 10.681 85.5966 10.7983 86.1759 11.033C86.7626 11.2603 87.2686 11.5757 87.6939 11.979L87.2539 12.694Z" fill="white"/>
<mask id="path-2-inside-1_606_8" fill="white">
<path d="M66.0802 22.5319C66.1665 22.9742 65.8776 23.4083 65.4279 23.4382C64.3358 23.5108 63.2384 23.3046 62.2409 22.8328C60.9964 22.2441 59.9729 21.2729 59.3198 20.061C58.6667 18.8491 58.4184 17.4601 58.611 16.097C58.8037 14.7339 59.4273 13.4682 60.3906 12.4848C61.354 11.5014 62.6066 10.8518 63.9654 10.6311C65.3243 10.4104 66.7181 10.6301 67.9432 11.2581C69.1682 11.886 70.1604 12.8894 70.7745 14.1214C71.2668 15.1089 71.4956 16.2019 71.4455 17.2953C71.4249 17.7455 70.9969 18.0433 70.5529 17.9661V17.9661C70.1089 17.8888 69.819 17.465 69.8203 17.0143C69.8225 16.2668 69.6508 15.5251 69.314 14.8495C68.8552 13.929 68.114 13.1795 67.1987 12.7103C66.2835 12.2412 65.2422 12.0771 64.2271 12.242C63.2119 12.4069 62.2761 12.8921 61.5564 13.6268C60.8367 14.3615 60.3708 15.3071 60.2269 16.3254C60.083 17.3438 60.2685 18.3815 60.7564 19.2868C61.2443 20.1922 62.009 20.9178 62.9387 21.3575C63.6211 21.6803 64.3662 21.8367 65.1135 21.8191C65.564 21.8085 65.9938 22.0896 66.0802 22.5319V22.5319Z"/>
</mask>
<path d="M66.0802 22.5319C66.1665 22.9742 65.8776 23.4083 65.4279 23.4382C64.3358 23.5108 63.2384 23.3046 62.2409 22.8328C60.9964 22.2441 59.9729 21.2729 59.3198 20.061C58.6667 18.8491 58.4184 17.4601 58.611 16.097C58.8037 14.7339 59.4273 13.4682 60.3906 12.4848C61.354 11.5014 62.6066 10.8518 63.9654 10.6311C65.3243 10.4104 66.7181 10.6301 67.9432 11.2581C69.1682 11.886 70.1604 12.8894 70.7745 14.1214C71.2668 15.1089 71.4956 16.2019 71.4455 17.2953C71.4249 17.7455 70.9969 18.0433 70.5529 17.9661V17.9661C70.1089 17.8888 69.819 17.465 69.8203 17.0143C69.8225 16.2668 69.6508 15.5251 69.314 14.8495C68.8552 13.929 68.114 13.1795 67.1987 12.7103C66.2835 12.2412 65.2422 12.0771 64.2271 12.242C63.2119 12.4069 62.2761 12.8921 61.5564 13.6268C60.8367 14.3615 60.3708 15.3071 60.2269 16.3254C60.083 17.3438 60.2685 18.3815 60.7564 19.2868C61.2443 20.1922 62.009 20.9178 62.9387 21.3575C63.6211 21.6803 64.3662 21.8367 65.1135 21.8191C65.564 21.8085 65.9938 22.0896 66.0802 22.5319V22.5319Z" stroke="white" stroke-width="10" mask="url(#path-2-inside-1_606_8)"/>
<path d="M68.8561 23.8674C69.0425 23.8741 69.2253 23.844 69.394 23.7788C69.5627 23.7137 69.714 23.6148 69.8392 23.4877C69.9645 23.3607 70.0613 23.208 70.124 23.0384C70.1868 22.8688 70.2143 22.6856 70.2049 22.4993L70.1857 22.1127L70.5725 22.1265C70.949 22.1399 71.3026 22.0033 71.5555 21.7467C71.8085 21.4901 71.9401 21.1346 71.9213 20.7584C71.9026 20.3821 71.7351 20.016 71.4556 19.7405C71.1762 19.465 70.8077 19.3026 70.4312 19.2892L70.0444 19.2755L67.2054 19.1744L67.3467 22.0117L67.366 22.3982C67.3752 22.5846 67.4211 22.7704 67.501 22.945C67.5809 23.1197 67.6932 23.2798 67.8316 23.4163C67.97 23.5527 68.1317 23.6628 68.3074 23.7402C68.4832 23.8176 68.6697 23.8608 68.8561 23.8674V23.8674Z" stroke="white" stroke-linecap="round" stroke-linejoin="round"/>
</svg>
