<svg width="85" height="28" viewBox="0 0 85 28" fill="none" xmlns="http://www.w3.org/2000/svg">
<path d="M0.0703125 22L0.0234375 21.1094L1.17188 20.7812L6 8.64062L7.35938 7.82031L12.4688 20.7812L13.6406 21.1094L13.5703 22H8.83594L8.78906 21.1094L10.2188 20.7812L8.83594 17.3125L8.57812 16.5859L6.02344 10.2109L6.5625 9.90625L4.125 16.5859L3.86719 17.2891L2.625 20.7812L4.05469 21.1094L4.00781 22H0.0703125ZM3.35156 17.6641V16.4219C3.64844 16.4375 4.05469 16.4531 4.57031 16.4688C5.08594 16.4844 5.71875 16.4922 6.46875 16.4922C7.20312 16.4922 7.82812 16.4844 8.34375 16.4688C8.875 16.4531 9.28125 16.4375 9.5625 16.4219V17.6641C9.03125 17.6484 8.5 17.6406 7.96875 17.6406C7.45312 17.625 6.95312 17.6172 6.46875 17.6172C6 17.6172 5.50781 17.625 4.99219 17.6406C4.49219 17.6406 3.94531 17.6484 3.35156 17.6641ZM22.8984 9.46094C22.8672 9.50781 22.8359 9.66406 22.8047 9.92969C22.7891 10.1953 22.7734 10.5781 22.7578 11.0781C22.7578 11.5625 22.7578 12.1797 22.7578 12.9297L22.7812 21.625C22.7812 22.7188 22.625 23.6484 22.3125 24.4141C22.0156 25.1797 21.5859 25.7578 21.0234 26.1484C20.4609 26.5547 19.7891 26.7578 19.0078 26.7578C18.2891 26.7578 17.6641 26.5859 17.1328 26.2422C16.6016 25.9141 16.3359 25.5312 16.3359 25.0938C16.3359 24.8281 16.4219 24.6172 16.5938 24.4609C16.75 24.3047 16.9688 24.2266 17.25 24.2266C17.4688 24.2266 17.6797 24.2734 17.8828 24.3672C18.0703 24.4609 18.2656 24.6172 18.4688 24.8359L19.6875 26.0547L18.8672 25.7734C19.3203 25.8516 19.6797 25.7891 19.9453 25.5859C20.2266 25.3984 20.4297 25.0625 20.5547 24.5781C20.6953 24.0938 20.7656 23.4453 20.7656 22.6328V12.9297C20.7656 12.2422 20.7578 11.6562 20.7422 11.1719C20.7422 10.6875 20.7344 10.3047 20.7188 10.0234C20.7188 9.72656 20.7031 9.53906 20.6719 9.46094L19.0781 9.13281L19.125 8.24219H24.2812L24.3281 9.13281L22.8984 9.46094ZM29.8359 22.1875C29.2109 22.1875 28.6562 22.0625 28.1719 21.8125C27.6875 21.5625 27.3047 21.2422 27.0234 20.8516C26.7578 20.4609 26.625 20.0547 26.625 19.6328C26.625 19.1016 26.7969 18.6641 27.1406 18.3203C27.4844 17.9766 28.0469 17.6797 28.8281 17.4297L32.3906 16.2344V15.0391C32.3906 14.6484 32.2734 14.2969 32.0391 13.9844C31.8047 13.6562 31.4922 13.3984 31.1016 13.2109C30.7109 13.0234 30.2734 12.9297 29.7891 12.9297C29.3984 12.9297 29.1328 13.0156 28.9922 13.1875C28.8516 13.3438 28.7656 13.6641 28.7344 14.1484L28.6875 15.1328C28.125 15.2578 27.6484 15.2422 27.2578 15.0859C26.8672 14.9141 26.6719 14.6406 26.6719 14.2656C26.6719 14 26.7812 13.7344 27 13.4688C27.2344 13.2031 27.5391 12.9531 27.9141 12.7188C28.2891 12.4688 28.6953 12.2578 29.1328 12.0859C29.5703 11.9141 30 11.7969 30.4219 11.7344C31.5781 11.7344 32.5 12.0391 33.1875 12.6484C33.8906 13.2578 34.25 14.0547 34.2656 15.0391L34.2188 18.9766C34.2188 19.2734 34.2266 19.5625 34.2422 19.8438C34.2734 20.125 34.3125 20.3359 34.3594 20.4766L35.8594 20.7578V21.4844L34.7109 21.9062C34.4922 21.9844 34.2891 22.0469 34.1016 22.0938C33.9141 22.1562 33.7578 22.1875 33.6328 22.1875C33.1484 22.1875 32.8359 21.9141 32.6953 21.3672L32.4375 20.4531H32.7891C32.2734 21.0312 31.7734 21.4688 31.2891 21.7656C30.8203 22.0469 30.3359 22.1875 29.8359 22.1875ZM30.4688 20.8047C30.8281 20.8047 31.1641 20.7266 31.4766 20.5703C31.7891 20.3984 32.0938 20.1406 32.3906 19.7969V17.3359L29.7656 18.0391C29.3906 18.1328 29.1172 18.2812 28.9453 18.4844C28.7891 18.6875 28.7109 18.9453 28.7109 19.2578C28.7109 19.6484 28.8828 20.0078 29.2266 20.3359C29.5859 20.6484 30 20.8047 30.4688 20.8047ZM37.1016 22L37.0547 21.1562L38.5078 20.8047C38.5234 20.6953 38.5312 20.5547 38.5312 20.3828C38.5469 20.2109 38.5625 19.9609 38.5781 19.6328C38.5938 19.3047 38.6016 18.8594 38.6016 18.2969L38.625 16.4688C38.6406 16.1406 38.6328 15.8047 38.6016 15.4609C38.5859 15.1172 38.5625 14.7969 38.5312 14.5C38.5 14.1875 38.4688 13.9375 38.4375 13.75L36.9375 13.4219V12.6484L40.0781 11.7812L40.4766 12.1562L40.3594 13.4219L40.4297 13.4453C40.9141 12.8359 41.4141 12.3984 41.9297 12.1328C42.4609 11.8672 43 11.7344 43.5469 11.7344C44.0938 11.7344 44.625 11.8828 45.1406 12.1797C45.6562 12.4766 46.0781 12.9297 46.4062 13.5391C46.75 14.1484 46.9219 14.9297 46.9219 15.8828L46.9453 18.3672C46.9453 18.9297 46.9531 19.4375 46.9688 19.8906C47 20.3281 47.0391 20.6328 47.0859 20.8047L48.4922 21.1562L48.4219 22H43.8516L43.7812 21.1562L45.0703 20.8047C45.0859 20.6797 45.1016 20.5234 45.1172 20.3359C45.1328 20.1484 45.1406 19.9141 45.1406 19.6328C45.1562 19.3359 45.1641 18.9688 45.1641 18.5312L45.1406 15.9531C45.1406 15.2812 45.0312 14.7422 44.8125 14.3359C44.6094 13.9297 44.3359 13.6328 43.9922 13.4453C43.6484 13.2578 43.2812 13.1641 42.8906 13.1641C42.4062 13.1641 41.9531 13.2812 41.5312 13.5156C41.1094 13.75 40.7344 14.1172 40.4062 14.6172V18.1328C40.4062 18.8516 40.4141 19.4375 40.4297 19.8906C40.4609 20.3281 40.4922 20.6328 40.5234 20.8047L41.9062 21.1562L41.8359 22H37.1016ZM50.3203 22L50.25 21.1562L51.5859 20.8047C51.6016 20.6797 51.6094 20.5234 51.6094 20.3359C51.625 20.1484 51.6406 19.9141 51.6562 19.6328C51.6719 19.3359 51.6797 18.9688 51.6797 18.5312V15.9766C51.6797 15.2891 51.5625 14.7422 51.3281 14.3359C51.0938 13.9297 50.7969 13.6328 50.4375 13.4453C50.0938 13.2578 49.7422 13.1641 49.3828 13.1641C48.8516 13.1641 48.3594 13.2969 47.9062 13.5625C47.4531 13.8281 47.0469 14.2344 46.6875 14.7812L46.2422 13.9141C46.7891 13.1641 47.3672 12.6172 47.9766 12.2734C48.6016 11.9141 49.2578 11.7344 49.9453 11.7344C50.6016 11.7344 51.1953 11.8906 51.7266 12.2031C52.2578 12.5156 52.6797 12.9688 52.9922 13.5625C53.3047 14.1562 53.4609 14.875 53.4609 15.7188V18.3672C53.4609 18.9297 53.4688 19.4375 53.4844 19.8906C53.5156 20.3281 53.5469 20.6328 53.5781 20.8047L55.0312 21.1562L54.9844 22H50.3203ZM69.7734 22L69.7266 21.1328L71.2969 20.8047C71.3125 20.7422 71.3203 20.6328 71.3203 20.4766C71.3359 20.3203 71.3516 20.0703 71.3672 19.7266C71.3828 19.3828 71.3906 18.9062 71.3906 18.2969V16.75C71.3906 16.1094 71.375 15.5234 71.3438 14.9922C71.3125 14.4609 71.2734 14.0469 71.2266 13.75L69.6562 13.4219V12.6484L72.9844 11.7812L73.3359 12.1094C73.2891 12.5938 73.25 13.0703 73.2188 13.5391C73.2031 14.0078 73.1953 14.5547 73.1953 15.1797V18.1328C73.1953 18.8516 73.2031 19.4453 73.2188 19.9141C73.25 20.3828 73.2812 20.6797 73.3125 20.8047L74.8828 21.1328L74.8359 22H69.7734ZM72.3047 9.13281C71.9141 9.13281 71.5703 9 71.2734 8.73438C70.9922 8.46875 70.8516 8.14062 70.8516 7.75C70.8516 7.35938 70.9922 7.03125 71.2734 6.76562C71.5703 6.5 71.9141 6.36719 72.3047 6.36719C72.7109 6.36719 73.0469 6.5 73.3125 6.76562C73.5781 7.03125 73.7109 7.35938 73.7109 7.75C73.7109 8.14062 73.5781 8.46875 73.3125 8.73438C73.0469 9 72.7109 9.13281 72.3047 9.13281ZM80.0156 22.1875C79.4375 22.1875 78.8594 22.125 78.2812 22C77.7031 21.8594 77.2109 21.6797 76.8047 21.4609L76.6875 18.9531H77.8359L78.3047 20.6406C78.8516 21.0156 79.4766 21.2031 80.1797 21.2031C80.7109 21.2031 81.1406 21.0781 81.4688 20.8281C81.7969 20.5625 81.9609 20.2109 81.9609 19.7734C81.9609 19.3672 81.8125 19.0156 81.5156 18.7188C81.2188 18.4062 80.6406 18.0703 79.7812 17.7109C78.6719 17.2266 77.8906 16.7656 77.4375 16.3281C76.9844 15.875 76.7578 15.2969 76.7578 14.5938C76.7578 14.0312 76.9219 13.5391 77.25 13.1172C77.5938 12.6797 78.0625 12.3438 78.6562 12.1094C79.25 11.8594 79.9375 11.7344 80.7188 11.7344C81.1562 11.7344 81.6016 11.7734 82.0547 11.8516C82.5078 11.9297 82.8828 12.0312 83.1797 12.1562L83.4375 14.5938H82.3359L81.7734 13C81.6172 12.9062 81.4297 12.8359 81.2109 12.7891C80.9922 12.7266 80.7578 12.6953 80.5078 12.6953C79.9609 12.6953 79.5234 12.8281 79.1953 13.0938C78.8672 13.3438 78.7031 13.6719 78.7031 14.0781C78.7031 14.5469 78.8828 14.9297 79.2422 15.2266C79.6016 15.5078 80.2344 15.8594 81.1406 16.2812C82.1719 16.75 82.8906 17.2109 83.2969 17.6641C83.7031 18.1172 83.9062 18.6641 83.9062 19.3047C83.9062 20.1484 83.5391 20.8438 82.8047 21.3906C82.0703 21.9219 81.1406 22.1875 80.0156 22.1875Z" fill="#FEF4EA"/>
<mask id="path-2-inside-1_606_8" fill="white">
<path d="M62.8078 20.2595C62.8942 20.7018 62.6053 21.1358 62.1556 21.1657C61.0635 21.2383 59.966 21.0321 58.9685 20.5603C57.7241 19.9717 56.7005 19.0004 56.0475 17.7885C55.3944 16.5767 55.146 15.1877 55.3387 13.8246C55.5313 12.4615 56.1549 11.1957 57.1183 10.2123C58.0816 9.2289 59.3343 8.57938 60.6931 8.35867C62.0519 8.13797 63.4457 8.35765 64.6708 8.98561C65.8959 9.61357 66.888 10.6169 67.5022 11.8489C67.9945 12.8365 68.2233 13.9295 68.1732 15.0228C68.1525 15.473 67.7245 15.7708 67.2805 15.6936C66.8366 15.6164 66.5466 15.1925 66.5479 14.7419C66.5502 13.9944 66.3785 13.2527 66.0417 12.577C65.5828 11.6566 64.8416 10.907 63.9264 10.4379C63.0112 9.96874 61.9699 9.80463 60.9547 9.96951C59.9396 10.1344 59.0038 10.6196 58.2841 11.3543C57.5644 12.089 57.0985 13.0346 56.9546 14.053C56.8106 15.0713 56.9962 16.109 57.4841 17.0144C57.972 17.9197 58.7367 18.6453 59.6664 19.0851C60.3488 19.4079 61.0939 19.5643 61.8412 19.5466C62.2917 19.536 62.7215 19.8172 62.8078 20.2595Z"/>
</mask>
<path d="M62.8078 20.2595C62.8942 20.7018 62.6053 21.1358 62.1556 21.1657C61.0635 21.2383 59.966 21.0321 58.9685 20.5603C57.7241 19.9717 56.7005 19.0004 56.0475 17.7885C55.3944 16.5767 55.146 15.1877 55.3387 13.8246C55.5313 12.4615 56.1549 11.1957 57.1183 10.2123C58.0816 9.2289 59.3343 8.57938 60.6931 8.35867C62.0519 8.13797 63.4457 8.35765 64.6708 8.98561C65.8959 9.61357 66.888 10.6169 67.5022 11.8489C67.9945 12.8365 68.2233 13.9295 68.1732 15.0228C68.1525 15.473 67.7245 15.7708 67.2805 15.6936C66.8366 15.6164 66.5466 15.1925 66.5479 14.7419C66.5502 13.9944 66.3785 13.2527 66.0417 12.577C65.5828 11.6566 64.8416 10.907 63.9264 10.4379C63.0112 9.96874 61.9699 9.80463 60.9547 9.96951C59.9396 10.1344 59.0038 10.6196 58.2841 11.3543C57.5644 12.089 57.0985 13.0346 56.9546 14.053C56.8106 15.0713 56.9962 16.109 57.4841 17.0144C57.972 17.9197 58.7367 18.6453 59.6664 19.0851C60.3488 19.4079 61.0939 19.5643 61.8412 19.5466C62.2917 19.536 62.7215 19.8172 62.8078 20.2595Z" stroke="#FEF4EA" stroke-width="10" mask="url(#path-2-inside-1_606_8)"/>
<path d="M65.5837 21.5949C65.7702 21.6016 65.953 21.5715 66.1216 21.5064C66.2903 21.4412 66.4416 21.3423 66.5669 21.2153C66.6921 21.0882 66.7889 20.9355 66.8517 20.7659C66.9144 20.5963 66.9419 20.4131 66.9326 20.2268L66.9133 19.8403L67.3001 19.854C67.6766 19.8674 68.0302 19.7308 68.2832 19.4743C68.5361 19.2177 68.6677 18.8622 68.649 18.4859C68.6303 18.1097 68.4627 17.7435 68.1833 17.468C67.9038 17.1925 67.5353 17.0302 67.1589 17.0168L66.7721 17.003L63.9331 16.902L64.0744 19.7392L64.0936 20.1258C64.1029 20.3121 64.1487 20.4979 64.2286 20.6726C64.3085 20.8472 64.4209 21.0074 64.5592 21.1438C64.6976 21.2802 64.8593 21.3903 65.0351 21.4677C65.2109 21.5451 65.3973 21.5883 65.5837 21.5949V21.5949Z" stroke="#FEF4EA" stroke-linecap="round" stroke-linejoin="round"/>
</svg>
