<svg width="185" height="140" viewBox="0 0 185 140" fill="none" xmlns="http://www.w3.org/2000/svg">
<circle cx="67.5" cy="72.5" r="67.5" fill="#FFC7C7"/>
<circle cx="140" cy="45" r="45" fill="#FFC7C7"/>
<path d="M63.5825 51.1324L41.7017 88.2499C41.2505 89.0438 41.0118 89.9438 41.0093 90.8605C41.0068 91.7772 41.2405 92.6786 41.6873 93.4751C42.134 94.2715 42.7782 94.9351 43.5557 95.4C44.3333 95.8649 45.2171 96.1149 46.1192 96.1249H89.8808C90.7829 96.1149 91.6667 95.8649 92.4442 95.4C93.2218 94.9351 93.866 94.2715 94.3127 93.4751C94.7595 92.6786 94.9932 91.7772 94.9907 90.8605C94.9882 89.9438 94.7495 89.0438 94.2983 88.2499L72.4175 51.1324C71.957 50.361 71.3085 49.7231 70.5347 49.2804C69.761 48.8378 68.888 48.6052 68 48.6052C67.112 48.6052 66.239 48.8378 65.4652 49.2804C64.6915 49.7231 64.043 50.361 63.5825 51.1324V51.1324Z" stroke="#5A5250" stroke-width="2" stroke-linecap="round" stroke-linejoin="round"/>
<path d="M68 65V79" stroke="#5A5250" stroke-width="2" stroke-linecap="round" stroke-linejoin="round"/>
<path d="M68 85.625H68.025" stroke="#5A5250" stroke-width="3" stroke-linecap="round" stroke-linejoin="round"/>
</svg>
