<svg width="1439" height="237" viewBox="0 0 1439 237" fill="none" xmlns="http://www.w3.org/2000/svg">
<rect x="-1" width="1440" height="237" fill="#FFC7C7"/>
<mask id="path-2-inside-1_351_3" fill="white">
<path d="M742.538 83.3367C743.674 81.6736 745.955 81.2361 747.523 82.5005C754.217 87.8971 759.294 95.071 762.149 103.233C765.406 112.545 765.6 122.656 762.701 132.086C759.802 141.517 753.963 149.773 746.038 155.648C738.112 161.524 728.515 164.71 718.649 164.742C708.783 164.773 699.165 161.649 691.202 155.825C683.239 150 677.347 141.782 674.387 132.37C671.428 122.959 671.556 112.847 674.754 103.514C677.556 95.3339 682.587 88.1275 689.246 82.688C690.806 81.4134 693.089 81.8363 694.237 83.4921V83.4921C695.384 85.1479 694.959 87.4081 693.418 88.7055C688.029 93.2417 683.953 99.1714 681.656 105.878C678.963 113.739 678.855 122.255 681.347 130.182C683.839 138.109 688.802 145.031 695.509 149.936C702.216 154.841 710.316 157.473 718.625 157.446C726.935 157.419 735.018 154.736 741.693 149.787C748.368 144.839 753.286 137.885 755.727 129.943C758.169 122 758.006 113.485 755.262 105.641C752.922 98.9496 748.807 93.0463 743.39 88.5448C741.84 87.2573 741.401 84.9999 742.538 83.3367V83.3367Z"/>
</mask>
<path d="M742.538 83.3367C743.674 81.6736 745.955 81.2361 747.523 82.5005C754.217 87.8971 759.294 95.071 762.149 103.233C765.406 112.545 765.6 122.656 762.701 132.086C759.802 141.517 753.963 149.773 746.038 155.648C738.112 161.524 728.515 164.71 718.649 164.742C708.783 164.773 699.165 161.649 691.202 155.825C683.239 150 677.347 141.782 674.387 132.37C671.428 122.959 671.556 112.847 674.754 103.514C677.556 95.3339 682.587 88.1275 689.246 82.688C690.806 81.4134 693.089 81.8363 694.237 83.4921V83.4921C695.384 85.1479 694.959 87.4081 693.418 88.7055C688.029 93.2417 683.953 99.1714 681.656 105.878C678.963 113.739 678.855 122.255 681.347 130.182C683.839 138.109 688.802 145.031 695.509 149.936C702.216 154.841 710.316 157.473 718.625 157.446C726.935 157.419 735.018 154.736 741.693 149.787C748.368 144.839 753.286 137.885 755.727 129.943C758.169 122 758.006 113.485 755.262 105.641C752.922 98.9496 748.807 93.0463 743.39 88.5448C741.84 87.2573 741.401 84.9999 742.538 83.3367V83.3367Z" stroke="#FEF4EA" stroke-width="8" mask="url(#path-2-inside-1_351_3)"/>
<path d="M735.141 68.5495C734.237 67.7413 733.164 67.1001 731.983 66.6626C730.801 66.2252 729.535 66 728.257 66C726.978 66 725.712 66.2252 724.531 66.6626C723.349 67.1001 722.276 67.7413 721.372 68.5495L719.496 70.2262L717.62 68.5495C715.794 66.9176 713.318 66.0008 710.736 66.0008C708.154 66.0008 705.677 66.9176 703.852 68.5495C702.026 70.1814 701 72.3948 701 74.7026C701 77.0105 702.026 79.2238 703.852 80.8557L705.728 82.5324L719.496 94.8385L733.265 82.5324L735.141 80.8557C736.045 80.0478 736.763 79.0886 737.252 78.0328C737.742 76.977 737.994 75.8454 737.994 74.7026C737.994 73.5598 737.742 72.4282 737.252 71.3724C736.763 70.3167 736.045 69.3574 735.141 68.5495V68.5495Z" stroke="#FEF4EA" stroke-width="5" stroke-linecap="round" stroke-linejoin="round"/>
</svg>
