<svg width="47" height="48" viewBox="0 0 47 48" fill="none" xmlns="http://www.w3.org/2000/svg">
<path d="M41.5 23.7564V46.5129H5.5V23.7564" stroke="#5A5250" stroke-width="2" stroke-linecap="round" stroke-linejoin="round"/>
<path d="M46 12.3782H1V23.7564H46V12.3782Z" stroke="#5A5250" stroke-width="2" stroke-linecap="round" stroke-linejoin="round"/>
<path d="M23.5 46.5129V12.3782" stroke="#5A5250" stroke-width="2" stroke-linecap="round" stroke-linejoin="round"/>
<path d="M23.5 12.3782H13.375C11.8832 12.3782 10.4524 11.7788 9.39752 10.7119C8.34263 9.64501 7.75 8.19796 7.75 6.68911C7.75 5.18027 8.34263 3.73322 9.39752 2.6663C10.4524 1.59939 11.8832 1 13.375 1C21.25 1 23.5 12.3782 23.5 12.3782Z" stroke="#5A5250" stroke-width="2" stroke-linecap="round" stroke-linejoin="round"/>
<path d="M23.5 12.3782H33.625C35.1168 12.3782 36.5476 11.7788 37.6025 10.7119C38.6574 9.64501 39.25 8.19796 39.25 6.68911C39.25 5.18027 38.6574 3.73322 37.6025 2.6663C36.5476 1.59939 35.1168 1 33.625 1C25.75 1 23.5 12.3782 23.5 12.3782Z" stroke="#5A5250" stroke-width="2" stroke-linecap="round" stroke-linejoin="round"/>
</svg>
