<svg width="37" height="32" viewBox="0 0 37 32" fill="none" xmlns="http://www.w3.org/2000/svg">
<path d="M33.3012 3.65222C32.446 2.81139 31.4306 2.14438 30.313 1.6893C29.1954 1.23423 27.9975 1 26.7878 1C25.5781 1 24.3802 1.23423 23.2626 1.6893C22.145 2.14438 21.1296 2.81139 20.2744 3.65222L18.4996 5.39642L16.7247 3.65222C14.9972 1.95459 12.6543 1.00088 10.2113 1.00088C7.76832 1.00088 5.42539 1.95459 3.69793 3.65222C1.97048 5.34984 1 7.65231 1 10.0531C1 12.4539 1.97048 14.7564 3.69793 16.454L5.47279 18.1982L18.4996 31L31.5263 18.1982L33.3012 16.454C34.1568 15.6136 34.8355 14.6157 35.2986 13.5174C35.7617 12.4191 36 11.2419 36 10.0531C36 8.86428 35.7617 7.68709 35.2986 6.5888C34.8355 5.49052 34.1568 4.49265 33.3012 3.65222V3.65222Z" stroke="#CF697B" stroke-width="2" stroke-linecap="round" stroke-linejoin="round"/>
</svg>
