<svg width="24" height="22" viewBox="0 0 24 22" fill="none" xmlns="http://www.w3.org/2000/svg">
<path d="M17 20.5245V18.3551C17 17.2044 16.5786 16.1008 15.8284 15.2872C15.0783 14.4735 14.0609 14.0164 13 14.0164H5C3.93913 14.0164 2.92172 14.4735 2.17157 15.2872C1.42143 16.1008 1 17.2044 1 18.3551V20.5245" stroke="#CF697B" stroke-opacity="0.75" stroke-width="2" stroke-linecap="round" stroke-linejoin="round"/>
<path d="M9 9.67761C11.2091 9.67761 13 7.73506 13 5.33881C13 2.94255 11.2091 1 9 1C6.79086 1 5 2.94255 5 5.33881C5 7.73506 6.79086 9.67761 9 9.67761Z" stroke="#CF697B" stroke-opacity="0.75" stroke-width="2" stroke-linecap="round" stroke-linejoin="round"/>
<path d="M23 20.5245V18.3551C22.9993 17.3938 22.7044 16.4599 22.1614 15.7001C21.6184 14.9403 20.8581 14.3977 20 14.1573" stroke="#CF697B" stroke-opacity="0.75" stroke-width="2" stroke-linecap="round" stroke-linejoin="round"/>
<path d="M16 1.14099C16.8604 1.37995 17.623 1.92273 18.1676 2.68376C18.7122 3.44479 19.0078 4.38079 19.0078 5.34418C19.0078 6.30757 18.7122 7.24356 18.1676 8.00459C17.623 8.76562 16.8604 9.3084 16 9.54736" stroke="#CF697B" stroke-opacity="0.75" stroke-width="2" stroke-linecap="round" stroke-linejoin="round"/>
</svg>
