<svg width="51" height="52" viewBox="0 0 51 52" fill="none" xmlns="http://www.w3.org/2000/svg">
<mask id="path-1-inside-1_60_314" fill="white">
<path d="M35.0032 12.5982C35.4527 11.9407 36.3543 11.7677 36.9744 12.2676C39.6208 14.4012 41.6279 17.2374 42.7565 20.464C44.0443 24.1458 44.1208 28.1429 42.9748 31.8713C41.8288 35.5996 39.5204 38.8637 36.387 41.1865C33.2535 43.5093 29.4593 44.769 25.5588 44.7816C21.6583 44.7941 17.8561 43.5588 14.7077 41.2562C11.5594 38.9537 9.23006 35.7045 8.0601 31.9836C6.89014 28.2627 6.94092 24.2651 8.20501 20.5752C9.31285 17.3413 11.3017 14.4923 13.9343 12.3417C14.5512 11.8379 15.4539 12.005 15.9076 12.6597C16.3613 13.3143 16.1932 14.2078 15.5839 14.7208C13.4535 16.5142 11.842 18.8585 10.9337 21.5099C9.86902 24.6177 9.82625 27.9846 10.8116 31.1184C11.797 34.2523 13.7588 36.9888 16.4105 38.9281C19.0621 40.8674 22.2644 41.9078 25.5495 41.8973C28.8346 41.8867 32.0302 40.8257 34.6693 38.8694C37.3084 36.9131 39.2526 34.164 40.2178 31.0239C41.183 27.8837 41.1186 24.5172 40.0339 21.4163C39.1086 18.7708 37.482 16.4369 35.3401 14.6572C34.7275 14.1482 34.5537 13.2558 35.0032 12.5982Z"/>
</mask>
<path d="M35.0032 12.5982C35.4527 11.9407 36.3543 11.7677 36.9744 12.2676C39.6208 14.4012 41.6279 17.2374 42.7565 20.464C44.0443 24.1458 44.1208 28.1429 42.9748 31.8713C41.8288 35.5996 39.5204 38.8637 36.387 41.1865C33.2535 43.5093 29.4593 44.769 25.5588 44.7816C21.6583 44.7941 17.8561 43.5588 14.7077 41.2562C11.5594 38.9537 9.23006 35.7045 8.0601 31.9836C6.89014 28.2627 6.94092 24.2651 8.20501 20.5752C9.31285 17.3413 11.3017 14.4923 13.9343 12.3417C14.5512 11.8379 15.4539 12.005 15.9076 12.6597C16.3613 13.3143 16.1932 14.2078 15.5839 14.7208C13.4535 16.5142 11.842 18.8585 10.9337 21.5099C9.86902 24.6177 9.82625 27.9846 10.8116 31.1184C11.797 34.2523 13.7588 36.9888 16.4105 38.9281C19.0621 40.8674 22.2644 41.9078 25.5495 41.8973C28.8346 41.8867 32.0302 40.8257 34.6693 38.8694C37.3084 36.9131 39.2526 34.164 40.2178 31.0239C41.183 27.8837 41.1186 24.5172 40.0339 21.4163C39.1086 18.7708 37.482 16.4369 35.3401 14.6572C34.7275 14.1482 34.5537 13.2558 35.0032 12.5982Z" stroke="#FEF4EA" stroke-width="8" mask="url(#path-1-inside-1_60_314)"/>
<path d="M31.685 3.45191C31.3276 3.02951 30.9033 2.69443 30.4363 2.46582C29.9693 2.23721 29.4688 2.11954 28.9632 2.11954C28.4577 2.11954 27.9572 2.23721 27.4902 2.46582C27.0232 2.69443 26.5989 3.02951 26.2415 3.45191L25.4999 4.32813L24.7582 3.45191C24.0364 2.59909 23.0573 2.11998 22.0365 2.11998C21.0156 2.11998 20.0366 2.59909 19.3148 3.45191C18.5929 4.30473 18.1874 5.46141 18.1874 6.66748C18.1874 7.87355 18.5929 9.03023 19.3148 9.88305L20.0564 10.7593L25.4999 17.1904L30.9433 10.7593L31.685 9.88305C32.0425 9.46085 32.3261 8.95956 32.5196 8.40782C32.7131 7.85608 32.8127 7.26471 32.8127 6.66748C32.8127 6.07025 32.7131 5.47888 32.5196 4.92714C32.3261 4.3754 32.0425 3.87411 31.685 3.45191V3.45191Z" stroke="#FEF4EA" stroke-width="3" stroke-linecap="round" stroke-linejoin="round"/>
</svg>
