<svg width="211" height="44" viewBox="0 0 211 44" fill="none" xmlns="http://www.w3.org/2000/svg">
<path d="M1.72266 32L1.61719 30.5234L3.65625 30.0312C3.70312 29.9375 3.73828 29.7148 3.76172 29.3633C3.78516 28.9883 3.79688 28.4375 3.79688 27.7109C3.82031 26.9844 3.83203 26.0586 3.83203 24.9336L3.86719 18.2891C3.86719 17.1875 3.85547 16.2969 3.83203 15.6172C3.80859 14.9141 3.78516 14.375 3.76172 14C3.76172 13.625 3.73828 13.4023 3.69141 13.332L1.51172 12.8398L1.61719 11.3633H9.52734C12.0352 11.3633 13.957 11.8789 15.293 12.9102C16.6289 13.918 17.2969 15.3945 17.2969 17.3398C17.2969 18.6289 16.957 19.7656 16.2773 20.75C15.5977 21.7344 14.6719 22.5078 13.5 23.0703C12.3281 23.6094 10.9805 23.8789 9.45703 23.8789C8.98828 23.8789 8.53125 23.8555 8.08594 23.8086C7.66406 23.7617 7.25391 23.7031 6.85547 23.6328V21.5586C7.30078 21.6992 7.72266 21.8164 8.12109 21.9102C8.54297 21.9805 8.96484 22.0156 9.38672 22.0156C10.6992 22.0156 11.7188 21.6641 12.4453 20.9609C13.1719 20.2578 13.5352 19.2031 13.5352 17.7969C13.5352 16.1562 13.1133 14.9609 12.2695 14.2109C11.4258 13.4375 10.3477 13.0508 9.03516 13.0508H7.45312C7.45312 13.1914 7.44141 13.5078 7.41797 14C7.41797 14.4922 7.40625 15.1016 7.38281 15.8281C7.38281 16.5547 7.38281 17.375 7.38281 18.2891L7.41797 24.9336C7.41797 26.0586 7.42969 26.9844 7.45312 27.7109C7.47656 28.4141 7.5 28.9531 7.52344 29.3281C7.54688 29.6797 7.57031 29.9023 7.59375 29.9961L10.4766 30.4531L10.3711 32H1.72266ZM27.7903 32.2812C26.22 32.2812 24.8489 31.9531 23.677 31.2969C22.5286 30.6406 21.6262 29.7266 20.97 28.5547C20.3137 27.3594 19.9856 26 19.9856 24.4766C19.9856 22.8359 20.3489 21.4297 21.0755 20.2578C21.802 19.0625 22.763 18.1367 23.9583 17.4805C25.177 16.8242 26.5012 16.4961 27.9309 16.4961C29.4075 16.4961 30.7083 16.8242 31.8333 17.4805C32.9583 18.1367 33.8255 19.0508 34.4348 20.2227C35.0442 21.3711 35.3489 22.7188 35.3489 24.2656C35.3489 25.7656 35.0091 27.125 34.3294 28.3438C33.6731 29.5391 32.7708 30.5 31.6223 31.2266C30.4739 31.9297 29.1966 32.2812 27.7903 32.2812ZM28.1419 30.4531C28.8684 30.4531 29.4895 30.2305 30.0052 29.7852C30.5442 29.3398 30.9544 28.707 31.2356 27.8867C31.5403 27.0664 31.6927 26.1172 31.6927 25.0391C31.6927 23.0234 31.3059 21.3945 30.5325 20.1523C29.7825 18.8867 28.763 18.2539 27.4739 18.2539C26.3489 18.2539 25.4348 18.7578 24.7317 19.7656C24.052 20.7734 23.7122 22.1094 23.7122 23.7734C23.7122 25.0625 23.8997 26.2109 24.2747 27.2188C24.6497 28.2266 25.177 29.0234 25.8567 29.6094C26.5364 30.1719 27.2981 30.4531 28.1419 30.4531ZM53.9986 29.293L56.2486 29.8555V31.1211L51.2212 32.3867L50.5884 31.9297L50.6236 29.6445L50.5181 29.6094C49.8384 30.6172 49.1236 31.3203 48.3736 31.7188C47.647 32.0938 46.8736 32.2812 46.0533 32.2812C44.4361 32.2812 43.1002 31.7891 42.0455 30.8047C40.9908 29.7969 40.4634 28.2969 40.4634 26.3047V23.2812C40.4634 22.7188 40.44 22.1445 40.3931 21.5586C40.3697 20.9727 40.3345 20.375 40.2877 19.7656L37.897 19.2734V17.9727L43.2056 16.5664L43.9439 17.1641C43.897 17.8672 43.8502 18.6641 43.8033 19.5547C43.7798 20.4219 43.7681 21.3242 43.7681 22.2617L43.733 25.8477C43.733 27.207 44.0494 28.1914 44.6822 28.8008C45.315 29.4102 46.147 29.7148 47.1783 29.7148C47.7408 29.7148 48.3267 29.5625 48.9361 29.2578C49.5455 28.9297 50.0728 28.4023 50.5181 27.6758V23.7734C50.5181 23.2578 50.5064 22.7656 50.483 22.2969C50.483 21.8047 50.4712 21.3477 50.4478 20.9258C50.4244 20.4805 50.3892 20.0938 50.3423 19.7656L47.7759 19.2734V17.9727L53.19 16.5664L53.858 17.0938C53.8345 17.6797 53.8111 18.2305 53.7877 18.7461C53.7877 19.2617 53.7877 19.8008 53.7877 20.3633C53.7877 20.9023 53.7877 21.5 53.7877 22.1562V24.7578C53.7877 25.8125 53.8111 26.7266 53.858 27.5C53.9048 28.2734 53.9517 28.8711 53.9986 29.293ZM58.6561 32L58.5506 30.6289L60.7303 30.0664C60.7537 29.9727 60.7772 29.7734 60.8006 29.4688C60.8241 29.1641 60.8475 28.7539 60.8709 28.2383C60.8944 27.7227 60.9061 27.1133 60.9061 26.4102L60.9412 23.7031C60.9412 22.9297 60.9061 22.2031 60.8358 21.5234C60.7889 20.8438 60.7186 20.2578 60.6248 19.7656L58.3748 19.2734V17.9727L63.5428 16.5664L64.1756 17.0938L64.035 19.9766L64.1405 20.0117C64.8202 18.6758 65.5116 17.7734 66.2147 17.3047C66.9412 16.8359 67.6444 16.6016 68.3241 16.6016C68.8866 16.6016 69.367 16.7539 69.7655 17.0586C70.1639 17.3398 70.3631 17.7852 70.3631 18.3945C70.3631 19.0039 70.1522 19.4727 69.7303 19.8008C69.3084 20.1289 68.7811 20.293 68.1483 20.293C67.6795 20.293 67.2459 20.1992 66.8475 20.0117C66.4491 19.8242 66.0506 19.543 65.6522 19.168L66.3553 19.3438C65.9569 19.625 65.5702 20 65.1952 20.4688C64.8202 20.9375 64.4803 21.5117 64.1756 22.1914L64.2108 25.2852C64.2342 25.9648 64.2577 26.6328 64.2811 27.2891C64.3045 27.9219 64.328 28.4844 64.3514 28.9766C64.3748 29.4688 64.3983 29.832 64.4217 30.0664L67.4803 30.5586L67.3748 32H58.6561ZM97.9594 11.2227L98.768 17.0586L97.0102 17.2344L95.5687 13.2617C95.3578 13.2148 95.1234 13.1914 94.8656 13.1914C94.6312 13.168 94.3969 13.1562 94.1625 13.1562H92.932C92.6977 13.1562 92.4047 13.1562 92.0531 13.1562C91.7016 13.1562 91.3852 13.168 91.1039 13.1914C91.1039 13.3789 91.0922 13.8242 91.0687 14.5273C91.0687 15.207 91.0687 16.0273 91.0687 16.9883C91.0687 17.9258 91.0687 18.8398 91.0687 19.7305V24.0195C91.0687 25.4492 91.0805 26.7148 91.1039 27.8164C91.1273 28.8945 91.1391 29.6328 91.1391 30.0312L94.1625 30.4531L94.057 32H84.4945L84.3891 30.4531L87.3773 30.0312C87.3773 29.6328 87.3891 28.8945 87.4125 27.8164C87.4359 26.7148 87.4477 25.4492 87.4477 24.0195V19.7305C87.4477 18.8398 87.4477 17.9258 87.4477 16.9883C87.4477 16.0273 87.4477 15.207 87.4477 14.5273C87.4477 13.8242 87.4359 13.3789 87.4125 13.1914C87.1547 13.168 86.85 13.1562 86.4984 13.1562C86.1703 13.1562 85.8773 13.1562 85.6195 13.1562H84.3187C84.0844 13.1562 83.8383 13.168 83.5805 13.1914C83.3461 13.1914 83.1234 13.2148 82.9125 13.2617L81.5062 17.3047L79.7484 17.0938L80.4867 11.2227C80.768 11.2461 81.0609 11.2695 81.3656 11.293C81.6937 11.293 82.0336 11.3047 82.3852 11.3281C82.7367 11.3281 83.0766 11.3398 83.4047 11.3633C83.7562 11.3633 84.0844 11.3633 84.3891 11.3633H94.0922C94.3734 11.3633 94.6781 11.3633 95.0062 11.3633C95.3578 11.3398 95.7094 11.3281 96.0609 11.3281C96.4125 11.3047 96.7523 11.293 97.0805 11.293C97.4086 11.2695 97.7016 11.2461 97.9594 11.2227ZM107.82 32.2812C106.25 32.2812 104.879 31.9531 103.707 31.2969C102.558 30.6406 101.656 29.7266 101 28.5547C100.343 27.3594 100.015 26 100.015 24.4766C100.015 22.8359 100.379 21.4297 101.105 20.2578C101.832 19.0625 102.793 18.1367 103.988 17.4805C105.207 16.8242 106.531 16.4961 107.961 16.4961C109.437 16.4961 110.738 16.8242 111.863 17.4805C112.988 18.1367 113.855 19.0508 114.465 20.2227C115.074 21.3711 115.379 22.7188 115.379 24.2656C115.379 25.7656 115.039 27.125 114.359 28.3438C113.703 29.5391 112.8 30.5 111.652 31.2266C110.504 31.9297 109.226 32.2812 107.82 32.2812ZM108.172 30.4531C108.898 30.4531 109.519 30.2305 110.035 29.7852C110.574 29.3398 110.984 28.707 111.265 27.8867C111.57 27.0664 111.722 26.1172 111.722 25.0391C111.722 23.0234 111.336 21.3945 110.562 20.1523C109.812 18.8867 108.793 18.2539 107.504 18.2539C106.379 18.2539 105.465 18.7578 104.761 19.7656C104.082 20.7734 103.742 22.1094 103.742 23.7734C103.742 25.0625 103.929 26.2109 104.304 27.2188C104.679 28.2266 105.207 29.0234 105.886 29.6094C106.566 30.1719 107.328 30.4531 108.172 30.4531ZM134.028 29.293L136.278 29.8555V31.1211L131.251 32.3867L130.618 31.9297L130.653 29.6445L130.548 29.6094C129.868 30.6172 129.153 31.3203 128.403 31.7188C127.677 32.0938 126.903 32.2812 126.083 32.2812C124.466 32.2812 123.13 31.7891 122.075 30.8047C121.02 29.7969 120.493 28.2969 120.493 26.3047V23.2812C120.493 22.7188 120.47 22.1445 120.423 21.5586C120.399 20.9727 120.364 20.375 120.317 19.7656L117.927 19.2734V17.9727L123.235 16.5664L123.974 17.1641C123.927 17.8672 123.88 18.6641 123.833 19.5547C123.81 20.4219 123.798 21.3242 123.798 22.2617L123.763 25.8477C123.763 27.207 124.079 28.1914 124.712 28.8008C125.345 29.4102 126.177 29.7148 127.208 29.7148C127.77 29.7148 128.356 29.5625 128.966 29.2578C129.575 28.9297 130.103 28.4023 130.548 27.6758V23.7734C130.548 23.2578 130.536 22.7656 130.513 22.2969C130.513 21.8047 130.501 21.3477 130.478 20.9258C130.454 20.4805 130.419 20.0938 130.372 19.7656L127.806 19.2734V17.9727L133.22 16.5664L133.888 17.0938C133.864 17.6797 133.841 18.2305 133.817 18.7461C133.817 19.2617 133.817 19.8008 133.817 20.3633C133.817 20.9023 133.817 21.5 133.817 22.1562V24.7578C133.817 25.8125 133.841 26.7266 133.888 27.5C133.935 28.2734 133.981 28.8711 134.028 29.293ZM138.158 40.1211L137.455 38.7852C138.651 38.082 139.518 37.25 140.057 36.2891C140.619 35.3516 140.901 34.1094 140.901 32.5625L140.936 23.457C140.936 22.5195 140.901 21.7461 140.83 21.1367C140.76 20.5273 140.69 20.0586 140.619 19.7305L138.264 19.2734V17.9727L143.748 16.5664L144.416 17.1289C144.369 17.7617 144.322 18.4414 144.276 19.168C144.252 19.8711 144.24 20.7852 144.24 21.9102L144.276 31.8594C144.276 32.7266 144.135 33.5586 143.854 34.3555C143.596 35.1758 143.197 35.9375 142.658 36.6406C142.143 37.3438 141.51 37.9883 140.76 38.5742C140.01 39.1602 139.143 39.6758 138.158 40.1211ZM142.588 12.9453C141.885 12.9453 141.299 12.7227 140.83 12.2773C140.385 11.8086 140.162 11.2578 140.162 10.625C140.162 9.99219 140.385 9.45312 140.83 9.00781C141.299 8.53906 141.885 8.30469 142.588 8.30469C143.291 8.30469 143.854 8.53906 144.276 9.00781C144.721 9.45312 144.944 9.99219 144.944 10.625C144.944 11.2578 144.721 11.8086 144.276 12.2773C143.854 12.7227 143.291 12.9453 142.588 12.9453ZM179.166 29.293L181.416 29.8555V31.1211L176.389 32.3867L175.756 31.9297L175.791 29.6445L175.686 29.6094C175.006 30.6172 174.291 31.3203 173.541 31.7188C172.815 32.0938 172.041 32.2812 171.221 32.2812C169.604 32.2812 168.268 31.7891 167.213 30.8047C166.158 29.7969 165.631 28.2969 165.631 26.3047V23.2812C165.631 22.7188 165.607 22.1445 165.561 21.5586C165.537 20.9727 165.502 20.375 165.455 19.7656L163.065 19.2734V17.9727L168.373 16.5664L169.111 17.1641C169.065 17.8672 169.018 18.6641 168.971 19.5547C168.947 20.4219 168.936 21.3242 168.936 22.2617L168.9 25.8477C168.9 27.207 169.217 28.1914 169.85 28.8008C170.482 29.4102 171.315 29.7148 172.346 29.7148C172.908 29.7148 173.494 29.5625 174.104 29.2578C174.713 28.9297 175.24 28.4023 175.686 27.6758V23.7734C175.686 23.2578 175.674 22.7656 175.65 22.2969C175.65 21.8047 175.639 21.3477 175.615 20.9258C175.592 20.4805 175.557 20.0938 175.51 19.7656L172.943 19.2734V17.9727L178.357 16.5664L179.025 17.0938C179.002 17.6797 178.979 18.2305 178.955 18.7461C178.955 19.2617 178.955 19.8008 178.955 20.3633C178.955 20.9023 178.955 21.5 178.955 22.1562V24.7578C178.955 25.8125 178.979 26.7266 179.025 27.5C179.072 28.2734 179.119 28.8711 179.166 29.293ZM183.824 32L183.718 30.6289L185.898 30.0664C185.921 29.9727 185.945 29.7734 185.968 29.4688C185.992 29.1641 186.015 28.7539 186.038 28.2383C186.062 27.7227 186.074 27.1133 186.074 26.4102L186.109 23.7031C186.109 22.9297 186.074 22.2031 186.003 21.5234C185.956 20.8438 185.886 20.2578 185.792 19.7656L183.542 19.2734V17.9727L188.71 16.5664L189.343 17.0938L189.202 19.9766L189.308 20.0117C189.988 18.6758 190.679 17.7734 191.382 17.3047C192.109 16.8359 192.812 16.6016 193.492 16.6016C194.054 16.6016 194.535 16.7539 194.933 17.0586C195.331 17.3398 195.531 17.7852 195.531 18.3945C195.531 19.0039 195.32 19.4727 194.898 19.8008C194.476 20.1289 193.949 20.293 193.316 20.293C192.847 20.293 192.413 20.1992 192.015 20.0117C191.617 19.8242 191.218 19.543 190.82 19.168L191.523 19.3438C191.124 19.625 190.738 20 190.363 20.4688C189.988 20.9375 189.648 21.5117 189.343 22.1914L189.378 25.2852C189.402 25.9648 189.425 26.6328 189.449 27.2891C189.472 27.9219 189.495 28.4844 189.519 28.9766C189.542 29.4688 189.566 29.832 189.589 30.0664L192.648 30.5586L192.542 32H183.824ZM203.423 32.2812C202.532 32.2812 201.63 32.1875 200.715 32C199.825 31.7891 199.063 31.5078 198.43 31.1562L198.255 27.2891H200.153L200.891 29.8203C201.712 30.3594 202.637 30.6289 203.669 30.6289C204.442 30.6289 205.051 30.4531 205.497 30.1016C205.965 29.75 206.2 29.2695 206.2 28.6602C206.2 28.0742 205.977 27.5703 205.532 27.1484C205.11 26.7031 204.255 26.2227 202.965 25.707C201.278 25.0273 200.094 24.3359 199.415 23.6328C198.735 22.9297 198.395 22.0391 198.395 20.9609C198.395 20.0938 198.665 19.332 199.204 18.6758C199.743 17.9961 200.481 17.4688 201.419 17.0938C202.356 16.6953 203.446 16.4961 204.688 16.4961C205.368 16.4961 206.059 16.5664 206.762 16.707C207.465 16.8242 208.051 16.9883 208.52 17.1992L208.907 20.9609H207.079L206.27 18.5352C206.036 18.3945 205.755 18.2891 205.426 18.2188C205.098 18.125 204.758 18.0781 204.407 18.0781C203.61 18.0781 202.965 18.2656 202.473 18.6406C202.005 19.0156 201.77 19.4844 201.77 20.0469C201.77 20.7031 202.04 21.2422 202.579 21.6641C203.118 22.0625 204.067 22.5664 205.426 23.1758C206.973 23.8555 208.051 24.5469 208.661 25.25C209.294 25.9297 209.61 26.7734 209.61 27.7812C209.61 29.1172 209.024 30.207 207.852 31.0508C206.704 31.8711 205.227 32.2812 203.423 32.2812Z" fill="#FEF4EA"/>
<mask id="path-2-inside-1_353_2" fill="white">
<path d="M158.938 18.0085C159.28 17.5077 159.969 17.3746 160.424 17.7756C161.574 18.7883 162.449 20.0835 162.959 21.5412C163.59 23.346 163.628 25.3054 163.066 27.133C162.504 28.9606 161.373 30.5606 159.837 31.6993C158.301 32.8379 156.441 33.4554 154.529 33.4616C152.617 33.4677 150.753 32.8622 149.21 31.7335C147.666 30.6047 146.525 29.012 145.951 27.188C145.378 25.3641 145.402 23.4045 146.022 21.5957C146.523 20.1347 147.39 18.8339 148.533 17.8138C148.986 17.4099 149.675 17.5386 150.021 18.0372C150.366 18.5357 150.234 19.2143 149.798 19.6358C149.033 20.376 148.449 21.2903 148.1 22.3075C147.632 23.673 147.614 25.1523 148.046 26.5292C148.479 27.9061 149.341 29.1084 150.506 29.9605C151.671 30.8125 153.078 31.2696 154.522 31.265C155.965 31.2603 157.369 30.7942 158.529 29.9347C159.688 29.0751 160.542 27.8673 160.966 26.4876C161.391 25.108 161.362 23.6288 160.886 22.2664C160.531 21.2515 159.941 20.3409 159.17 19.6057C158.731 19.1869 158.595 18.5092 158.938 18.0085Z"/>
</mask>
<path d="M158.938 18.0085C159.28 17.5077 159.969 17.3746 160.424 17.7756C161.574 18.7883 162.449 20.0835 162.959 21.5412C163.59 23.346 163.628 25.3054 163.066 27.133C162.504 28.9606 161.373 30.5606 159.837 31.6993C158.301 32.8379 156.441 33.4554 154.529 33.4616C152.617 33.4677 150.753 32.8622 149.21 31.7335C147.666 30.6047 146.525 29.012 145.951 27.188C145.378 25.3641 145.402 23.4045 146.022 21.5957C146.523 20.1347 147.39 18.8339 148.533 17.8138C148.986 17.4099 149.675 17.5386 150.021 18.0372C150.366 18.5357 150.234 19.2143 149.798 19.6358C149.033 20.376 148.449 21.2903 148.1 22.3075C147.632 23.673 147.614 25.1523 148.046 26.5292C148.479 27.9061 149.341 29.1084 150.506 29.9605C151.671 30.8125 153.078 31.2696 154.522 31.265C155.965 31.2603 157.369 30.7942 158.529 29.9347C159.688 29.0751 160.542 27.8673 160.966 26.4876C161.391 25.108 161.362 23.6288 160.886 22.2664C160.531 21.2515 159.941 20.3409 159.17 19.6057C158.731 19.1869 158.595 18.5092 158.938 18.0085Z" stroke="#FEF4EA" stroke-width="8" mask="url(#path-2-inside-1_353_2)"/>
<path d="M157.46 12.7073C157.289 12.483 157.086 12.3052 156.863 12.1838C156.639 12.0625 156.4 12 156.158 12C155.916 12 155.676 12.0625 155.453 12.1838C155.229 12.3052 155.026 12.483 154.855 12.7073L154.5 13.1724L154.145 12.7073C153.799 12.2546 153.331 12.0002 152.842 12.0002C152.354 12.0002 151.885 12.2546 151.54 12.7073C151.194 13.16 151 13.7739 151 14.4142C151 15.0544 151.194 15.6684 151.54 16.1211L151.895 16.5862L154.5 20L157.105 16.5862L157.46 16.1211C157.631 15.897 157.767 15.6309 157.86 15.338C157.952 15.0451 158 14.7312 158 14.4142C158 14.0971 157.952 13.7832 157.86 13.4903C157.767 13.1975 157.631 12.9314 157.46 12.7073V12.7073Z" stroke="#FEF4EA" stroke-width="1.5" stroke-linecap="round" stroke-linejoin="round"/>
</svg>
