<svg width="18" height="9" viewBox="0 0 18 9" fill="none" xmlns="http://www.w3.org/2000/svg">
<path d="M16.6705 8.37604C16.8781 8.55804 17.194 8.53722 17.376 8.32954C17.558 8.12186 17.5372 7.80596 17.3295 7.62396L16.6705 8.37604ZM0.671034 7.62346C0.463077 7.80514 0.441778 8.12101 0.62346 8.32897C0.805143 8.53692 1.12101 8.55822 1.32896 8.37654L0.671034 7.62346ZM9.01232 1L9.34186 0.623963C9.15347 0.45887 8.87199 0.458656 8.68335 0.623461L9.01232 1ZM17.3295 7.62396L9.34186 0.623963L8.68278 1.37604L16.6705 8.37604L17.3295 7.62396ZM8.68335 0.623461L0.671034 7.62346L1.32896 8.37654L9.34128 1.37654L8.68335 0.623461Z" fill="#5A5250"/>
</svg>
