<svg width="1440" height="90" viewBox="0 0 1440 90" fill="none" xmlns="http://www.w3.org/2000/svg">
<path fill-rule="evenodd" clip-rule="evenodd" d="M0 71.0261L34.8 65.9528C68.4 60.8795 136.8 50.7329 205.2 49.0418C274.8 47.3507 343.2 54.1151 411.6 62.5706C480 71.0261 548.4 81.1727 616.8 79.4816C685.2 77.7905 754.8 64.2617 823.2 64.2617C891.6 64.2617 960 77.7905 1028.4 84.5549C1096.8 91.3193 1164.26 92.8742 1234.8 82.8638C1332.77 68.9622 1431.25 24.2308 1440 36.3462V0H1405.2C1371.6 0 1303.2 0 1234.8 0C1165.2 0 1096.8 0 1028.4 0C960 0 891.6 0 823.2 0C754.8 0 685.2 0 616.8 0C548.4 0 480 0 411.6 0C343.2 0 274.8 0 205.2 0C136.8 0 68.4 0 34.8 0H0V71.0261Z" fill="#FFC7C7"/>
</svg>
